<?xml version="1.0" encoding="UTF-8" standalone="no" ?>
<!DOCTYPE svg PUBLIC "-//W3C//DTD SVG 1.1//EN" "http://www.w3.org/Graphics/SVG/1.1/DTD/svg11.dtd">
<svg xmlns="http://www.w3.org/2000/svg" xmlns:xlink="http://www.w3.org/1999/xlink" version="1.1" width="640" height="640" viewBox="0 0 640 640" xml:space="preserve">
<desc>Created with Fabric.js 5.3.0</desc>
<defs>
</defs>
<g transform="matrix(0.8512222239 0 0 0.9351208461 409.451502591 317.9942607574)" id="6PTeMEVoP0uAlpsqa9mjS"  >
<path style="stroke: rgb(0,0,0); stroke-width: 1; stroke-dasharray: none; stroke-linecap: butt; stroke-dashoffset: 0; stroke-linejoin: miter; stroke-miterlimit: 4; fill: none; fill-rule: nonzero; opacity: 1;" vector-effect="non-scaling-stroke"  transform=" translate(0, 0)" d="M 0 -8.52843 C 4.70769 -8.52843 8.52843 -4.70769 8.52843 0 C 8.52843 4.70769 4.70769 8.52843 0 8.52843 C -4.70769 8.52843 -8.52843 4.70769 -8.52843 0 C -8.52843 -4.70769 -4.70769 -8.52843 0 -8.52843 z" stroke-linecap="round" />
</g>
<g transform="matrix(0.8512222239 0 0 0.9351208461 406.3293306453 296.5462969565)" id="NoC8PMYRTDlxusIbTnLjy"  >
<path style="stroke: rgb(0,0,0); stroke-width: 1; stroke-dasharray: none; stroke-linecap: butt; stroke-dashoffset: 0; stroke-linejoin: miter; stroke-miterlimit: 4; fill: none; fill-rule: nonzero; opacity: 1;" vector-effect="non-scaling-stroke"  transform=" translate(0, 0)" d="M 0 -8.52843 C 4.70769 -8.52843 8.52843 -4.70769 8.52843 0 C 8.52843 4.70769 4.70769 8.52843 0 8.52843 C -4.70769 8.52843 -8.52843 4.70769 -8.52843 0 C -8.52843 -4.70769 -4.70769 -8.52843 0 -8.52843 z" stroke-linecap="round" />
</g>
<g transform="matrix(0.8512222239 0 0 0.9351208461 407.1664347177 251.4630744976)" id="4bVPyiS9Wzr7YMtX85iWB"  >
<path style="stroke: rgb(0,0,0); stroke-width: 1; stroke-dasharray: none; stroke-linecap: butt; stroke-dashoffset: 0; stroke-linejoin: miter; stroke-miterlimit: 4; fill: none; fill-rule: nonzero; opacity: 1;" vector-effect="non-scaling-stroke"  transform=" translate(0, 0)" d="M 0 -8.52843 C 4.70769 -8.52843 8.52843 -4.70769 8.52843 0 C 8.52843 4.70769 4.70769 8.52843 0 8.52843 C -4.70769 8.52843 -8.52843 4.70769 -8.52843 0 C -8.52843 -4.70769 -4.70769 -8.52843 0 -8.52843 z" stroke-linecap="round" />
</g>
<g transform="matrix(0.8512222239 0 0 0.9351208461 417.4378507139 221.9675384459)" id="9i-57rOw_RQAPfOIxl9_o"  >
<path style="stroke: rgb(0,0,0); stroke-width: 1; stroke-dasharray: none; stroke-linecap: butt; stroke-dashoffset: 0; stroke-linejoin: miter; stroke-miterlimit: 4; fill: none; fill-rule: nonzero; opacity: 1;" vector-effect="non-scaling-stroke"  transform=" translate(0, 0)" d="M 0 -8.52843 C 4.70769 -8.52843 8.52843 -4.70769 8.52843 0 C 8.52843 4.70769 4.70769 8.52843 0 8.52843 C -4.70769 8.52843 -8.52843 4.70769 -8.52843 0 C -8.52843 -4.70769 -4.70769 -8.52843 0 -8.52843 z" stroke-linecap="round" />
</g>
<g transform="matrix(0.8512222239 0 0 0.9351208461 436.0626269791 210.0000965881)" id="ORjJMKGBXVS3RxtqCo025"  >
<path style="stroke: rgb(0,0,0); stroke-width: 1; stroke-dasharray: none; stroke-linecap: butt; stroke-dashoffset: 0; stroke-linejoin: miter; stroke-miterlimit: 4; fill: none; fill-rule: nonzero; opacity: 1;" vector-effect="non-scaling-stroke"  transform=" translate(0, 0)" d="M 0 -8.52843 C 4.70769 -8.52843 8.52843 -4.70769 8.52843 0 C 8.52843 4.70769 4.70769 8.52843 0 8.52843 C -4.70769 8.52843 -8.52843 4.70769 -8.52843 0 C -8.52843 -4.70769 -4.70769 -8.52843 0 -8.52843 z" stroke-linecap="round" />
</g>
<g transform="matrix(1 0 0 1 158.1895124839 249.0473414149)" id="80Kebw1BFSQmVPqiwzfan"  >
<path style="stroke: rgb(0,0,0); stroke-width: 1; stroke-dasharray: none; stroke-linecap: butt; stroke-dashoffset: 0; stroke-linejoin: miter; stroke-miterlimit: 4; fill: rgb(255,255,255); fill-opacity: 0; fill-rule: nonzero; opacity: 1;" vector-effect="non-scaling-stroke"  transform=" translate(0, 0)" d="M 0 0" stroke-linecap="round" />
</g>
<g transform="matrix(1 0 0 1 158.1895124839 249.0473414149)" id="wUhvn1E9RMuVMaWCEkFs0"  >
<path style="stroke: rgb(0,0,0); stroke-width: 1; stroke-dasharray: none; stroke-linecap: butt; stroke-dashoffset: 0; stroke-linejoin: miter; stroke-miterlimit: 4; fill: rgb(255,255,255); fill-opacity: 0; fill-rule: nonzero; opacity: 1;" vector-effect="non-scaling-stroke"  transform=" translate(0, 0)" d="M 0 0" stroke-linecap="round" />
</g>
<g transform="matrix(1 0 0 1 207.3780121004 267.6429251006)" id="Z2uJ_xft77EsWtBos5icF"  >
<path style="stroke: rgb(0,0,0); stroke-width: 1; stroke-dasharray: none; stroke-linecap: butt; stroke-dashoffset: 0; stroke-linejoin: miter; stroke-miterlimit: 4; fill: rgb(255,255,255); fill-opacity: 0; fill-rule: nonzero; opacity: 1;" vector-effect="non-scaling-stroke"  transform=" translate(0, 0)" d="M -19.02702 -18.37894 C -19.02702 -18.37894 -21.02038 15.240929999999999 -17.36589 17.566519999999997 C -13.711400000000001 19.892099999999996 10.599530000000001 17.192639999999997 19.569629999999997 9.883669999999997" stroke-linecap="round" />
</g>
<g transform="matrix(1 0 0 1 211.937829877 361.2164716536)" id="rRe_ZYSxdxPXOOQ1JOkqR"  >
<path style="stroke: rgb(0,0,0); stroke-width: 1; stroke-dasharray: none; stroke-linecap: butt; stroke-dashoffset: 0; stroke-linejoin: miter; stroke-miterlimit: 4; fill: rgb(255,255,255); fill-opacity: 0; fill-rule: nonzero; opacity: 1;" vector-effect="non-scaling-stroke"  transform=" translate(0.0000015438, -0.0000044326)" d="M 16.01834 -36.03985 C 16.01834 -36.03985 -10.297800000000002 -37.801050000000004 -15.281190000000002 -32.15321 C -20.264580000000002 -26.50537 1.6508799999999972 36.299710000000005 1.6508799999999972 36.299710000000005" stroke-linecap="round" />
</g>
<g transform="matrix(1 0 0 1 231.4894800507 360.0906287596)" id="oxJHoZGQekzVNrWr-qlKi"  >
<path style="stroke: rgb(0,0,0); stroke-width: 1; stroke-dasharray: none; stroke-linecap: butt; stroke-dashoffset: 0; stroke-linejoin: miter; stroke-miterlimit: 4; fill: rgb(255,255,255); fill-opacity: 0; fill-rule: nonzero; opacity: 1;" vector-effect="non-scaling-stroke"  transform=" translate(0.0000010684, 0)" d="M -18.36052 35.25336 L 14.171529999999997 18.75305 C 14.171529999999997 18.75305 19.780499999999996 11.381260000000001 18.01768 5.932540000000001 C 16.254859999999997 0.48382000000000147 4.716399999999998 -29.32387 -7.623350000000002 -35.253359999999994" stroke-linecap="round" />
</g>
<g transform="matrix(1 0 0 1 321.8272607963 306.7851638803)" id="GwHJdM68P5s9we6OLvzgP"  >
<path style="stroke: rgb(0,0,0); stroke-width: 1; stroke-dasharray: none; stroke-linecap: butt; stroke-dashoffset: 0; stroke-linejoin: miter; stroke-miterlimit: 4; fill: rgb(255,255,255); fill-rule: nonzero; opacity: 1;" vector-effect="non-scaling-stroke"  transform=" translate(-169.9292799089, -126.623484457)" d="M 4.51841 155.93918 C -2.23121 110.40062 9.01736 69.17029 5.79155 68.88565999999999 C 2.56574 68.60102999999998 1.57465 64.61126999999999 1.57465 64.61126999999999 C 1.57465 64.61126999999999 0.5481800000000001 61.67008999999999 0.1686700000000001 51.99266999999999 C -0.21083999999999992 42.31524999999999 0.1686700000000001 33.01677999999999 0.1686700000000001 33.01677999999999 C 0.1686700000000001 33.01677999999999 0.1686700000000001 30.97927999999999 1.57465 28.82637999999999 C 2.98062 26.67347999999999 4.51841 26.99151999999999 4.51841 26.99151999999999 C 4.51841 26.99151999999999 28.8369 26.99151999999999 30.17891 26.99151999999999 C 31.520919999999997 26.99151999999999 32.53759 26.17817999999999 32.53759 26.17817999999999 C 32.53759 26.17817999999999 33.31026 25.56817999999999 36.56362 23.25015999999999 C 39.81697 20.93213999999999 43.49165 21.16953999999999 43.49165 21.16953999999999 C 43.49165 21.16953999999999 65.59982 22.05560999999999 68.21585 22.13999999999999 C 70.83189 22.22438999999999 72.01332000000001 21.16953999999999 72.01332000000001 21.16953999999999 C 72.01332000000001 21.16953999999999 74.96690000000001 19.19815999999999 78.34243000000001 12.74245999999999 C 81.71796 6.28675999999999 85.25168000000001 5.779569999999991 85.25168000000001 5.779569999999991 C 85.25168000000001 5.779569999999991 115.95149 1.2992799999999907 168.10203 0.22400999999999094 C 220.25257000000002 -0.851260000000009 245.76485000000002 2.293709999999991 245.76485000000002 2.293709999999991 C 245.76485000000002 2.293709999999991 248.03289000000004 2.499889999999991 252.46588000000003 8.84009999999999 C 256.89887000000004 15.180309999999992 260.86811 14.60725999999999 260.86811 14.60725999999999 C 260.86811 14.60725999999999 261.69236 14.84035999999999 265.07231 14.60725999999999 C 268.45226 14.37415999999999 287.56648 12.742459999999989 287.56648 12.742459999999989 C 287.56648 12.742459999999989 292.69469000000004 13.558309999999988 293.86019 14.60725999999999 C 295.02569 15.656209999999989 297.93944 16.35550999999999 297.93944 16.35550999999999 L 302.36834 15.772759999999987 C 302.36834 15.772759999999987 301.28191 16.238959999999988 305.01151 15.772759999999987 C 308.74111999999997 15.306559999999987 309.12825 18.336859999999987 309.12825 18.336859999999987 L 310.29375 21.94990999999999 C 310.29375 21.94990999999999 312.9744 23.931269999999987 314.72265 28.82636999999999 C 316.4709 33.72147999999999 315.35435 40.06621999999999 315.35435 40.06621999999999 C 315.35435 40.06621999999999 314.98843 41.16796999999999 315.79854 41.84845999999999 C 316.60865 42.52895999999999 316.32648 45.056499999999986 316.32648 45.056499999999986 L 315.79854 46.676749999999984 C 315.79854 46.676749999999984 330.34399 71.22804999999998 336.70763 107.13713999999999 C 343.07126 143.04622999999998 337.8274 174.78177 337.8274 174.78177 C 337.8274 174.78177 337.32445 173.63804 339.00669 179.43242999999998 C 340.63096 185.02711 334.74566 200.93005 331.04046999999997 211.02247999999997 C 330.7842 211.7205 330.24138999999997 212.27543999999997 329.5492 212.54705999999996 L 324.82615999999996 214.40040999999997 C 324.30878999999993 214.60342999999997 323.75793999999996 214.70763999999997 323.20215999999994 214.70763999999997 L 305.74145999999996 214.70763999999997 C 305.27407999999997 214.70763999999997 304.82583999999997 214.52196999999998 304.49535 214.19147999999996 L 303.60402 213.30014999999995 C 303.32939 213.02551999999994 302.95691999999997 212.87123999999994 302.56854 212.87123999999994 L 297.35874 212.87123999999994 C 296.80565 212.87123999999994 296.32575 212.48946999999995 296.20138000000003 211.95053999999993 L 296.1138 211.57100999999994 C 295.99599 211.06050999999994 295.54404000000005 210.69699999999995 295.02015 210.69137999999995 L 262.53213 210.34273999999996 C 261.99043 210.33692999999997 261.45177 210.42447999999996 260.9398 210.60155999999995 C 258.12982 211.57345999999995 255.21784 212.51882999999995 253.18107999999998 215.18228999999994 C 250.96264999999997 218.08330999999993 243.45412 218.52507999999995 243.45412 218.52507999999995 C 243.45412 218.52507999999995 210.00701999999998 218.69572999999994 195.1606 220.57285999999993 C 180.31418 222.44998999999993 145.0518 231.60727999999995 145.0518 231.60727999999995 C 145.0518 231.60727999999995 136.57721999999998 232.94537999999994 133.45501 230.35839999999993 C 130.3328 227.77142999999992 122.57186999999999 230.00157999999993 122.57186999999999 230.00157999999993 L 80.01642999999999 241.29131999999993 L 80.55990999999999 243.52561999999992 L 73.79661999999999 245.63914999999992 C 73.79661999999999 245.63914999999992 73.95519999999999 246.2904699999999 72.83340999999999 247.5725199999999 C 71.84058999999999 248.7071599999999 58.049629999999986 251.6109199999999 50.66523999999998 253.15331999999992 C 48.90589999999998 253.52079999999992 47.099119999999985 252.78711999999993 46.09404999999998 251.29709999999992 C 26.89701999999998 222.83740999999992 11.08347999999998 200.23266999999993 4.518389999999982 155.93916999999993 z M 62.22198 214.7194 L 93.76303 198.72173 C 93.76303 198.72173 99.372 191.34994 97.60918 185.90122 C 96.02275 180.9977 86.5191 156.36603 75.63923 147.16411 L 76.05819 145.05467 C 76.05819 145.05467 74.59848 144.95698 72.30153 144.88139999999999 C 72.19047 144.82413 72.07934 144.76876 71.96815 144.71533 L 71.94458999999999 144.87006 C 64.33858 144.63674 48.508669999999995 144.69131 44.75865999999999 148.94132 C 39.77526999999999 154.58916 61.69072999999999 217.39424 61.69072999999999 217.39424 z M 70.91513 93.37998 C 70.91513 93.37998 72.31864 83.73086 64.77478 77.23963 C 59.74898 72.91510000000001 48.416050000000006 72.57718 41.41036000000001 72.83341 L 35.83539000000001 72.48814 C 35.827900000000014 72.67706 35.81809000000001 72.91291 35.80550000000001 73.20444 C 35.59074000000001 73.22623 35.47652000000001 73.23931 35.47652000000001 73.23931 L 35.794050000000006 73.47164000000001 C 35.399420000000006 82.75422 34.87039000000001 103.043 37.68027000000001 104.83111000000001 C 41.33476000000001 107.15669000000001 61.94503 107.19505000000001 70.91513 99.88608 z M 35.8055 72.48629 L 35.835390000000004 72.48814 C 35.895630000000004 70.96815000000001 35.8055 72.48629 35.8055 72.48629 z M 282.12486 124.34573 C 282.12486 124.34573 282.20235 124.32577 282.34747 124.28977 C 282.91087 123.58023 282.12487 123.94481 282.12487 123.94481 z M 282.34747 124.28977 C 282.11134999999996 124.58714 281.63822 125.07317 280.77088 125.85377 C 277.83401999999995 128.49695 275.04400999999996 140.90517 275.04400999999996 140.90517 C 275.04400999999996 140.90517 272.54767999999996 154.52296 271.96030999999994 164.5817 C 271.3729399999999 174.64044 279.59613999999993 176.18229000000002 279.59613999999993 176.18229000000002 L 304.33915999999994 182.56996000000004 C 304.33915999999994 182.56996000000004 305.51390999999995 175.96203000000003 305.2202199999999 155.99140000000003 C 304.9265299999999 136.02077000000003 303.7649599999999 128.78764000000004 303.7649599999999 128.78764000000004 C 303.7649599999999 128.78764000000004 303.99274999999994 126.16805000000004 300.5758899999999 123.32067000000004 C 297.4043399999999 120.67771000000003 284.2236699999999 123.82434000000003 282.34746999999993 124.28977000000003 z M 277.64896 54.20349 C 277.64896 54.20349 274.4203 55.64313 271.43027 63.94878 C 268.44024 72.25442 272.9978 79.89562 272.9978 79.89562 C 272.9978 79.89562 276.87377 84.65753 281.30345 86.54014 C 285.73313 88.42275 292.93136 88.20127 292.93136 88.20127 C 292.93136 88.20127 297.80401 85.76495 297.91474999999997 82.55342999999999 C 298.02549 79.34190999999998 287.72648999999996 49.99528999999999 287.72648999999996 49.99528999999999 z" stroke-linecap="round" />
</g>
<g transform="matrix(1 0 0 1 208.0579735661 234.4165561607)" id="TaqglNO95Il34v6I9ZvSc"  >
<path style="stroke: rgb(0,0,0); stroke-width: 1; stroke-dasharray: none; stroke-linecap: butt; stroke-dashoffset: 0; stroke-linejoin: miter; stroke-miterlimit: 4; fill: rgb(255,255,255); fill-opacity: 0; fill-rule: nonzero; opacity: 1;" vector-effect="non-scaling-stroke"  transform=" translate(0, 0)" d="M -18.70536 -28.71444 C -18.70536 -28.71444 -28.715899999999998 -25.55322 -24.711679999999998 -11.854589999999998 C -20.707469999999997 1.8440400000000015 -10.696929999999998 3.5300300000000018 -10.696929999999998 3.5300300000000018 C -10.696929999999998 3.5300300000000018 -0.054149999999998144 3.7407800000000018 8.059660000000001 9.009480000000002 C 16.17346 14.278180000000003 25.657130000000002 28.71443 25.657130000000002 28.71443" stroke-linecap="round" />
</g>
<g transform="matrix(1 0 0 1 443.1566178049 214.9880793309)" id="wATWWfDRHTTKLPhKqLwGd"  >
<path style="stroke: rgb(0,0,0); stroke-width: 1; stroke-dasharray: none; stroke-linecap: butt; stroke-dashoffset: 0; stroke-linejoin: miter; stroke-miterlimit: 4; fill: rgb(255,255,255); fill-opacity: 0; fill-rule: nonzero; opacity: 1;" vector-effect="non-scaling-stroke"  transform=" translate(0, 0)" d="M 7.157 -16.5697 C 7.157 -16.5697 13.58783 -11.292990000000001 11.65733 -3.4422900000000016 C 9.72683 4.408419999999999 7.157 6.725019999999999 7.157 6.725019999999999 C 7.157 6.725019999999999 3.54922 11.100819999999999 -1.8561800000000002 12.259129999999999 C -7.26159 13.41743 -12.0188 16.569699999999997 -12.0188 16.569699999999997" stroke-linecap="round" />
</g>
<g transform="matrix(1 0 0 1 205.5792855103 266.347870959)" id="ugFexxyqcKBIvb2QtaciU"  >
<path style="stroke: rgb(0,0,0); stroke-width: 1; stroke-dasharray: none; stroke-linecap: butt; stroke-dashoffset: 0; stroke-linejoin: miter; stroke-miterlimit: 4; fill: rgb(255,255,255); fill-opacity: 0; fill-rule: nonzero; opacity: 1;" vector-effect="non-scaling-stroke"  transform=" translate(0, 0)" d="M -17.77091 -12.73024 C -17.77091 -12.73024 3.98348 -15.221160000000001 11.527339999999999 -8.72993 C 19.071199999999997 -2.2386999999999997 17.66769 7.410420000000002 17.66769 7.410420000000002 L 17.66769 13.199890000000002" stroke-linecap="round" />
</g>
<g transform="matrix(1 0 0 1 170.6715695561 235.4710841829)" id="oSJ-qcnjbfwa1its0txiH"  >
<path style="stroke: rgb(0,0,0); stroke-width: 1; stroke-dasharray: none; stroke-linecap: butt; stroke-dashoffset: 0; stroke-linejoin: miter; stroke-miterlimit: 4; fill: rgb(255,255,255); fill-opacity: 0; fill-rule: nonzero; opacity: 1;" vector-effect="non-scaling-stroke"  transform=" translate(0, 0)" d="M -11.22928 0.42194 L 11.22928 -0.42194" stroke-linecap="round" />
</g>
<g transform="matrix(1 0 0 1 157.0949573902 225.0280462082)" id="-wI1m8Y3S4RoHZWxePlTm"  >
<path style="stroke: rgb(0,0,0); stroke-width: 1; stroke-dasharray: none; stroke-linecap: butt; stroke-dashoffset: 0; stroke-linejoin: miter; stroke-miterlimit: 4; fill: rgb(255,255,255); fill-opacity: 0; fill-rule: nonzero; opacity: 1;" vector-effect="non-scaling-stroke"  transform=" translate(0, 0)" d="M -1.13368 -10.86498 C -1.13368 -10.86498 0.8835799999999998 -7.38397 1.09456 -0.7383999999999986 C 1.30553 5.907170000000002 0.59456 10.864980000000001 0.59456 10.864980000000001" stroke-linecap="round" />
</g>
<g transform="matrix(1 0 0 1 184.4096776789 229.1419702589)" id="WLFwO7X8ofZrV183Sdqzy"  >
<path style="stroke: rgb(0,0,0); stroke-width: 1; stroke-dasharray: none; stroke-linecap: butt; stroke-dashoffset: 0; stroke-linejoin: miter; stroke-miterlimit: 4; fill: rgb(255,255,255); fill-opacity: 0; fill-rule: nonzero; opacity: 1;" vector-effect="non-scaling-stroke"  transform=" translate(0, 0)" d="M -4.71422 -16.4557 C -4.71422 -16.4557 -7.56232 -13.50211 -5.76907 -5.37975 C -3.97582 2.742610000000001 -1.0222300000000004 5.407170000000001 -1.0222300000000004 5.407170000000001 C -1.0222300000000004 5.407170000000001 6.15077 13.50211 6.361739999999999 16.45569" stroke-linecap="round" />
</g>
<g transform="matrix(1 0 0 1 160.9338001296 243.4879618201)" id="p53iY5tyC75Is5lVbY_8C"  >
<path style="stroke: rgb(0,0,0); stroke-width: 1; stroke-dasharray: none; stroke-linecap: butt; stroke-dashoffset: 0; stroke-linejoin: miter; stroke-miterlimit: 4; fill: rgb(255,255,255); fill-opacity: 0; fill-rule: nonzero; opacity: 1;" vector-effect="non-scaling-stroke"  transform=" translate(0, 0)" d="M -1.99151 4.53586 C -1.99151 4.53586 2.09499 -0.21098000000000017 1.9895 -4.535870000000001" stroke-linecap="round" />
</g>
<g transform="matrix(1 0 0 1 167.6187319565 212.5519155234)" id="n_Ucbl3pCxCLadRNZQJjL"  >
<path style="stroke: rgb(0,0,0); stroke-width: 1; stroke-dasharray: none; stroke-linecap: butt; stroke-dashoffset: 0; stroke-linejoin: miter; stroke-miterlimit: 4; fill: rgb(255,255,255); fill-opacity: 0; fill-rule: nonzero; opacity: 1;" vector-effect="non-scaling-stroke"  transform=" translate(0, 0)" d="M -9.92922 0.36564 L 9.92922 -0.36564" stroke-linecap="round" />
</g>
<g transform="matrix(1 0 0 1 458.5817466381 222.3001035278)" id="FFY-_nmUrA6MpQERdGB8s"  >
<path style="stroke: rgb(0,0,0); stroke-width: 1; stroke-dasharray: none; stroke-linecap: butt; stroke-dashoffset: 0; stroke-linejoin: miter; stroke-miterlimit: 4; fill: rgb(255,255,255); fill-opacity: 0; fill-rule: nonzero; opacity: 1;" vector-effect="non-scaling-stroke"  transform=" translate(0, 0)" d="M 6.87799 -0.53828 L -6.87799 0.53828" stroke-linecap="round" />
</g>
<g transform="matrix(1 0 0 1 458.1752350719 202.0249839106)" id="7sZ7H0jyH0EsUaloKTH9k"  >
<path style="stroke: rgb(0,0,0); stroke-width: 1; stroke-dasharray: none; stroke-linecap: butt; stroke-dashoffset: 0; stroke-linejoin: miter; stroke-miterlimit: 4; fill: rgb(255,255,255); fill-opacity: 0; fill-rule: nonzero; opacity: 1;" vector-effect="non-scaling-stroke"  transform=" translate(0, 0)" d="M 2.49981 -0.35885 L -2.4998199999999997 0.35885" stroke-linecap="round" />
</g>
<g transform="matrix(0.9623190023 0 0 1.019574271 264.9791363609 332.5396371103)" id="h_YO3MNgLcg6rJjHAb9Dg"  >
<path style="stroke: rgb(0,0,0); stroke-width: 1; stroke-dasharray: none; stroke-linecap: butt; stroke-dashoffset: 0; stroke-linejoin: miter; stroke-miterlimit: 4; fill: none; fill-rule: nonzero; opacity: 1;" vector-effect="non-scaling-stroke"  transform=" translate(0, 0)" d="M 0 -8.52843 C 4.70769 -8.52843 8.52843 -4.70769 8.52843 0 C 8.52843 4.70769 4.70769 8.52843 0 8.52843 C -4.70769 8.52843 -8.52843 4.70769 -8.52843 0 C -8.52843 -4.70769 -4.70769 -8.52843 0 -8.52843 z" stroke-linecap="round" />
</g>
<g transform="matrix(0.9623190023 0 0 1.019574271 305.8489013757 323.8442688253)" id="3Fvv9h9OAY4rxH99j_u0Z"  >
<path style="stroke: rgb(0,0,0); stroke-width: 1; stroke-dasharray: none; stroke-linecap: butt; stroke-dashoffset: 0; stroke-linejoin: miter; stroke-miterlimit: 4; fill: none; fill-rule: nonzero; opacity: 1;" vector-effect="non-scaling-stroke"  transform=" translate(0, 0)" d="M 0 -8.52843 C 4.70769 -8.52843 8.52843 -4.70769 8.52843 0 C 8.52843 4.70769 4.70769 8.52843 0 8.52843 C -4.70769 8.52843 -8.52843 4.70769 -8.52843 0 C -8.52843 -4.70769 -4.70769 -8.52843 0 -8.52843 z" stroke-linecap="round" />
</g>
<g transform="matrix(0.9623190023 0 0 1.019574271 395.3717048523 363.2316496101)" id="U3GUVllRiGW7AXKMIwnns"  >
<path style="stroke: rgb(0,0,0); stroke-width: 1; stroke-dasharray: none; stroke-linecap: butt; stroke-dashoffset: 0; stroke-linejoin: miter; stroke-miterlimit: 4; fill: none; fill-rule: nonzero; opacity: 1;" vector-effect="non-scaling-stroke"  transform=" translate(0, 0)" d="M 0 -8.52843 C 4.70769 -8.52843 8.52843 -4.70769 8.52843 0 C 8.52843 4.70769 4.70769 8.52843 0 8.52843 C -4.70769 8.52843 -8.52843 4.70769 -8.52843 0 C -8.52843 -4.70769 -4.70769 -8.52843 0 -8.52843 z" stroke-linecap="round" />
</g>
<g transform="matrix(0.9623190023 0 0 1.019574271 372.411324426 317.2740060796)" id="hNN0Mo3GagYoemnDJ5YOn"  >
<path style="stroke: rgb(0,0,0); stroke-width: 1; stroke-dasharray: none; stroke-linecap: butt; stroke-dashoffset: 0; stroke-linejoin: miter; stroke-miterlimit: 4; fill: none; fill-rule: nonzero; opacity: 1;" vector-effect="non-scaling-stroke"  transform=" translate(0, 0)" d="M 0 -8.52843 C 4.70769 -8.52843 8.52843 -4.70769 8.52843 0 C 8.52843 4.70769 4.70769 8.52843 0 8.52843 C -4.70769 8.52843 -8.52843 4.70769 -8.52843 0 C -8.52843 -4.70769 -4.70769 -8.52843 0 -8.52843 z" stroke-linecap="round" />
</g>
<g transform="matrix(0.9623190023 0 0 1.019574271 345.8832954929 363.2316496101)" id="0H4Rlz5MceLWhG85TihFB"  >
<path style="stroke: rgb(0,0,0); stroke-width: 1; stroke-dasharray: none; stroke-linecap: butt; stroke-dashoffset: 0; stroke-linejoin: miter; stroke-miterlimit: 4; fill: none; fill-rule: nonzero; opacity: 1;" vector-effect="non-scaling-stroke"  transform=" translate(0, 0)" d="M 0 -8.52843 C 4.70769 -8.52843 8.52843 -4.70769 8.52843 0 C 8.52843 4.70769 4.70769 8.52843 0 8.52843 C -4.70769 8.52843 -8.52843 4.70769 -8.52843 0 C -8.52843 -4.70769 -4.70769 -8.52843 0 -8.52843 z" stroke-linecap="round" />
</g>
<g transform="matrix(0.9623190023 0 0 1.019574271 294.4110956345 375.7300453202)" id="ocEtScL5D4WQMO2OMqzCW"  >
<path style="stroke: rgb(0,0,0); stroke-width: 1; stroke-dasharray: none; stroke-linecap: butt; stroke-dashoffset: 0; stroke-linejoin: miter; stroke-miterlimit: 4; fill: none; fill-rule: nonzero; opacity: 1;" vector-effect="non-scaling-stroke"  transform=" translate(0, 0)" d="M 0 -8.52843 C 4.70769 -8.52843 8.52843 -4.70769 8.52843 0 C 8.52843 4.70769 4.70769 8.52843 0 8.52843 C -4.70769 8.52843 -8.52843 4.70769 -8.52843 0 C -8.52843 -4.70769 -4.70769 -8.52843 0 -8.52843 z" stroke-linecap="round" />
</g>
<g transform="matrix(2.1528944471 0.3409849821 -0.3492527587 2.2050951343 294.4110956345 375.7300453202)" id="GB0xxFrGqkExLM5fFl9Si"  >
<path style="stroke: rgb(0,0,0); stroke-width: 1; stroke-dasharray: none; stroke-linecap: butt; stroke-dashoffset: 0; stroke-linejoin: miter; stroke-miterlimit: 4; fill: none; fill-rule: nonzero; opacity: 1;" vector-effect="non-scaling-stroke"  transform=" translate(0, 0)" d="M 0 -8.52843 C 4.70769 -8.52843 8.52843 -4.70769 8.52843 0 C 8.52843 4.70769 4.70769 8.52843 0 8.52843 C -4.70769 8.52843 -8.52843 4.70769 -8.52843 0 C -8.52843 -4.70769 -4.70769 -8.52843 0 -8.52843 z" stroke-linecap="round" />
</g>
<g transform="matrix(2.1528944471 0.3409849821 -0.3492527587 2.2050951343 305.8489013757 324.3372681656)" id="4cr7JafXqDFJzHq9S3gkG"  >
<path style="stroke: rgb(0,0,0); stroke-width: 1; stroke-dasharray: none; stroke-linecap: butt; stroke-dashoffset: 0; stroke-linejoin: miter; stroke-miterlimit: 4; fill: none; fill-rule: nonzero; opacity: 1;" vector-effect="non-scaling-stroke"  transform=" translate(0, 0)" d="M 0 -8.52843 C 4.70769 -8.52843 8.52843 -4.70769 8.52843 0 C 8.52843 4.70769 4.70769 8.52843 0 8.52843 C -4.70769 8.52843 -8.52843 4.70769 -8.52843 0 C -8.52843 -4.70769 -4.70769 -8.52843 0 -8.52843 z" stroke-linecap="round" />
</g>
<g transform="matrix(2.1528944471 0.3409849821 -0.3492527587 2.2050951343 344.4822700117 363.2316496101)" id="-Gj9BXyxzTFyXOazqTqtt"  >
<path style="stroke: rgb(0,0,0); stroke-width: 1; stroke-dasharray: none; stroke-linecap: butt; stroke-dashoffset: 0; stroke-linejoin: miter; stroke-miterlimit: 4; fill: none; fill-rule: nonzero; opacity: 1;" vector-effect="non-scaling-stroke"  transform=" translate(0, 0)" d="M 0 -8.52843 C 4.70769 -8.52843 8.52843 -4.70769 8.52843 0 C 8.52843 4.70769 4.70769 8.52843 0 8.52843 C -4.70769 8.52843 -8.52843 4.70769 -8.52843 0 C -8.52843 -4.70769 -4.70769 -8.52843 0 -8.52843 z" stroke-linecap="round" />
</g>
<g transform="matrix(2.1528944471 0.3409849821 -0.3492527587 2.2050951343 371.0303127164 317.9942607574)" id="nJLyZhhlV1Z6Rm2N3XSbz"  >
<path style="stroke: rgb(0,0,0); stroke-width: 1; stroke-dasharray: none; stroke-linecap: butt; stroke-dashoffset: 0; stroke-linejoin: miter; stroke-miterlimit: 4; fill: none; fill-rule: nonzero; opacity: 1;" vector-effect="non-scaling-stroke"  transform=" translate(0, 0)" d="M 0 -8.52843 C 4.70769 -8.52843 8.52843 -4.70769 8.52843 0 C 8.52843 4.70769 4.70769 8.52843 0 8.52843 C -4.70769 8.52843 -8.52843 4.70769 -8.52843 0 C -8.52843 -4.70769 -4.70769 -8.52843 0 -8.52843 z" stroke-linecap="round" />
</g>
<g transform="matrix(2.1528944471 0.3409849821 -0.3492527587 2.2050951343 395.3717048523 362.949071442)" id="mk9-6qyWO73zQpAm8SChb"  >
<path style="stroke: rgb(0,0,0); stroke-width: 1; stroke-dasharray: none; stroke-linecap: butt; stroke-dashoffset: 0; stroke-linejoin: miter; stroke-miterlimit: 4; fill: none; fill-rule: nonzero; opacity: 1;" vector-effect="non-scaling-stroke"  transform=" translate(0, 0)" d="M 0 -8.52843 C 4.70769 -8.52843 8.52843 -4.70769 8.52843 0 C 8.52843 4.70769 4.70769 8.52843 0 8.52843 C -4.70769 8.52843 -8.52843 4.70769 -8.52843 0 C -8.52843 -4.70769 -4.70769 -8.52843 0 -8.52843 z" stroke-linecap="round" />
</g>
<g transform="matrix(0.9623190023 0 0 1.019574271 262.2085735903 309.206303777)" id="oSF37MGUPhwX8_YJNvLzp"  >
<path style="stroke: rgb(0,0,0); stroke-width: 1; stroke-dasharray: none; stroke-linecap: butt; stroke-dashoffset: 0; stroke-linejoin: miter; stroke-miterlimit: 4; fill: none; fill-rule: nonzero; opacity: 1;" vector-effect="non-scaling-stroke"  transform=" translate(0, 0)" d="M 0 -8.52843 C 4.70769 -8.52843 8.52843 -4.70769 8.52843 0 C 8.52843 4.70769 4.70769 8.52843 0 8.52843 C -4.70769 8.52843 -8.52843 4.70769 -8.52843 0 C -8.52843 -4.70769 -4.70769 -8.52843 0 -8.52843 z" stroke-linecap="round" />
</g>
<g transform="matrix(0.9623190023 0 0 1.019574271 247.533248915 261.8433438646)" id="RtL82QtImmFIqLuLTBDyF"  >
<path style="stroke: rgb(0,0,0); stroke-width: 1; stroke-dasharray: none; stroke-linecap: butt; stroke-dashoffset: 0; stroke-linejoin: miter; stroke-miterlimit: 4; fill: none; fill-rule: nonzero; opacity: 1;" vector-effect="non-scaling-stroke"  transform=" translate(0, 0)" d="M 0 -8.52843 C 4.70769 -8.52843 8.52843 -4.70769 8.52843 0 C 8.52843 4.70769 4.70769 8.52843 0 8.52843 C -4.70769 8.52843 -8.52843 4.70769 -8.52843 0 C -8.52843 -4.70769 -4.70769 -8.52843 0 -8.52843 z" stroke-linecap="round" />
</g>
<g transform="matrix(0.9623190023 0 0 1.019574271 227.0137683955 232.0337488398)" id="8Y7hVkU-Qebggbqx6orER"  >
<path style="stroke: rgb(0,0,0); stroke-width: 1; stroke-dasharray: none; stroke-linecap: butt; stroke-dashoffset: 0; stroke-linejoin: miter; stroke-miterlimit: 4; fill: none; fill-rule: nonzero; opacity: 1;" vector-effect="non-scaling-stroke"  transform=" translate(0, 0)" d="M 0 -8.52843 C 4.70769 -8.52843 8.52843 -4.70769 8.52843 0 C 8.52843 4.70769 4.70769 8.52843 0 8.52843 C -4.70769 8.52843 -8.52843 4.70769 -8.52843 0 C -8.52843 -4.70769 -4.70769 -8.52843 0 -8.52843 z" stroke-linecap="round" />
</g>
<g transform="matrix(0.9623190023 0 0 1.019574271 299.4273536784 373.7790259049)" id="A2bsWMez5DGrHkU8UD0TH"  >
<path style="stroke: rgb(0,0,0); stroke-width: 1; stroke-dasharray: none; stroke-linecap: butt; stroke-dashoffset: 0; stroke-linejoin: miter; stroke-miterlimit: 4; fill: rgb(255,255,255); fill-rule: nonzero; opacity: 1;" vector-effect="non-scaling-stroke"  transform=" translate(0, 0)" d="M 0 -8.52843 C 4.70769 -8.52843 8.52843 -4.70769 8.52843 0 C 8.52843 4.70769 4.70769 8.52843 0 8.52843 C -4.70769 8.52843 -8.52843 4.70769 -8.52843 0 C -8.52843 -4.70769 -4.70769 -8.52843 0 -8.52843 z" stroke-linecap="round" />
</g>
<g transform="matrix(0.9623190023 0 0 1.019574271 311.2929297512 321.6427140692)" id="9vlgORCAXhNW6Sq1T_fMK"  >
<path style="stroke: rgb(0,0,0); stroke-width: 1; stroke-dasharray: none; stroke-linecap: butt; stroke-dashoffset: 0; stroke-linejoin: miter; stroke-miterlimit: 4; fill: rgb(255,255,255); fill-rule: nonzero; opacity: 1;" vector-effect="non-scaling-stroke"  transform=" translate(0, 0)" d="M 0 -8.52843 C 4.70769 -8.52843 8.52843 -4.70769 8.52843 0 C 8.52843 4.70769 4.70769 8.52843 0 8.52843 C -4.70769 8.52843 -8.52843 4.70769 -8.52843 0 C -8.52843 -4.70769 -4.70769 -8.52843 0 -8.52843 z" stroke-linecap="round" />
</g>
<g transform="matrix(0.9623190023 0 0 1.019574271 350.8561707189 360.9121506727)" id="5lKN_xDjzVdgmuBR0COeD"  >
<path style="stroke: rgb(0,0,0); stroke-width: 1; stroke-dasharray: none; stroke-linecap: butt; stroke-dashoffset: 0; stroke-linejoin: miter; stroke-miterlimit: 4; fill: rgb(255,255,255); fill-rule: nonzero; opacity: 1;" vector-effect="non-scaling-stroke"  transform=" translate(0, 0)" d="M 0 -8.52843 C 4.70769 -8.52843 8.52843 -4.70769 8.52843 0 C 8.52843 4.70769 4.70769 8.52843 0 8.52843 C -4.70769 8.52843 -8.52843 4.70769 -8.52843 0 C -8.52843 -4.70769 -4.70769 -8.52843 0 -8.52843 z" stroke-linecap="round" />
</g>
<g transform="matrix(0.9623190023 0 0 1.019574271 377.6735305743 314.6489010253)" id="ojlPtcHYoBu1yrxWvaAGn"  >
<path style="stroke: rgb(0,0,0); stroke-width: 1; stroke-dasharray: none; stroke-linecap: butt; stroke-dashoffset: 0; stroke-linejoin: miter; stroke-miterlimit: 4; fill: rgb(255,255,255); fill-rule: nonzero; opacity: 1;" vector-effect="non-scaling-stroke"  transform=" translate(0, 0)" d="M 0 -8.52843 C 4.70769 -8.52843 8.52843 -4.70769 8.52843 0 C 8.52843 4.70769 4.70769 8.52843 0 8.52843 C -4.70769 8.52843 -8.52843 4.70769 -8.52843 0 C -8.52843 -4.70769 -4.70769 -8.52843 0 -8.52843 z" stroke-linecap="round" />
</g>
<g transform="matrix(0.9623190023 0 0 1.019574271 400.9711913141 360.9121506727)" id="P2SsUqeDsBqBxO1oTXNMb"  >
<path style="stroke: rgb(0,0,0); stroke-width: 1; stroke-dasharray: none; stroke-linecap: butt; stroke-dashoffset: 0; stroke-linejoin: miter; stroke-miterlimit: 4; fill: rgb(255,255,255); fill-rule: nonzero; opacity: 1;" vector-effect="non-scaling-stroke"  transform=" translate(0, 0)" d="M 0 -8.52843 C 4.70769 -8.52843 8.52843 -4.70769 8.52843 0 C 8.52843 4.70769 4.70769 8.52843 0 8.52843 C -4.70769 8.52843 -8.52843 4.70769 -8.52843 0 C -8.52843 -4.70769 -4.70769 -8.52843 0 -8.52843 z" stroke-linecap="round" />
</g>
<g transform="matrix(0.3194936376 0 0 0.3385026087 254.5442897073 224.6341792875)" id="jCRwrifUzVJHTK-bWFUVo"  >
<path style="stroke: rgb(0,0,0); stroke-width: 1; stroke-dasharray: none; stroke-linecap: butt; stroke-dashoffset: 0; stroke-linejoin: miter; stroke-miterlimit: 4; fill: none; fill-rule: nonzero; opacity: 1;" vector-effect="non-scaling-stroke"  transform=" translate(0, 0)" d="M 0 -8.52843 C 4.70769 -8.52843 8.52843 -4.70769 8.52843 0 C 8.52843 4.70769 4.70769 8.52843 0 8.52843 C -4.70769 8.52843 -8.52843 4.70769 -8.52843 0 C -8.52843 -4.70769 -4.70769 -8.52843 0 -8.52843 z" stroke-linecap="round" />
</g>
<g transform="matrix(0.3194936376 0 0 0.3385026087 244.3084697913 243.4879618201)" id="mhJ-kVo8z1XXG_rhw8oYd"  >
<path style="stroke: rgb(0,0,0); stroke-width: 1; stroke-dasharray: none; stroke-linecap: butt; stroke-dashoffset: 0; stroke-linejoin: miter; stroke-miterlimit: 4; fill: none; fill-rule: nonzero; opacity: 1;" vector-effect="non-scaling-stroke"  transform=" translate(0, 0)" d="M 0 -8.52843 C 4.70769 -8.52843 8.52843 -4.70769 8.52843 0 C 8.52843 4.70769 4.70769 8.52843 0 8.52843 C -4.70769 8.52843 -8.52843 4.70769 -8.52843 0 C -8.52843 -4.70769 -4.70769 -8.52843 0 -8.52843 z" stroke-linecap="round" />
</g>
<g transform="matrix(0.3194936376 0 0 0.3385026087 224.7313921793 215.5731698595)" id="l8oLrt49bhYh9IqVX1uJY"  >
<path style="stroke: rgb(0,0,0); stroke-width: 1; stroke-dasharray: none; stroke-linecap: butt; stroke-dashoffset: 0; stroke-linejoin: miter; stroke-miterlimit: 4; fill: none; fill-rule: nonzero; opacity: 1;" vector-effect="non-scaling-stroke"  transform=" translate(0, 0)" d="M 0 -8.52843 C 4.70769 -8.52843 8.52843 -4.70769 8.52843 0 C 8.52843 4.70769 4.70769 8.52843 0 8.52843 C -4.70769 8.52843 -8.52843 4.70769 -8.52843 0 C -8.52843 -4.70769 -4.70769 -8.52843 0 -8.52843 z" stroke-linecap="round" />
</g>
<g transform="matrix(0.3194936376 0 0 0.3385026087 253.5747806514 215.9388113265)" id="Hup0OHjXCgFfZA1HZNZdJ"  >
<path style="stroke: rgb(0,0,0); stroke-width: 1; stroke-dasharray: none; stroke-linecap: butt; stroke-dashoffset: 0; stroke-linejoin: miter; stroke-miterlimit: 4; fill: none; fill-rule: nonzero; opacity: 1;" vector-effect="non-scaling-stroke"  transform=" translate(0, 0)" d="M 0 -8.52843 C 4.70769 -8.52843 8.52843 -4.70769 8.52843 0 C 8.52843 4.70769 4.70769 8.52843 0 8.52843 C -4.70769 8.52843 -8.52843 4.70769 -8.52843 0 C -8.52843 -4.70769 -4.70769 -8.52843 0 -8.52843 z" stroke-linecap="round" />
</g>
<g transform="matrix(0.3194936376 0 0 0.3385026087 252.3126031656 207.8369050115)" id="2JlkyP-LivushvO4nqfKd"  >
<path style="stroke: rgb(0,0,0); stroke-width: 1; stroke-dasharray: none; stroke-linecap: butt; stroke-dashoffset: 0; stroke-linejoin: miter; stroke-miterlimit: 4; fill: none; fill-rule: nonzero; opacity: 1;" vector-effect="non-scaling-stroke"  transform=" translate(0, 0)" d="M 0 -8.52843 C 4.70769 -8.52843 8.52843 -4.70769 8.52843 0 C 8.52843 4.70769 4.70769 8.52843 0 8.52843 C -4.70769 8.52843 -8.52843 4.70769 -8.52843 0 C -8.52843 -4.70769 -4.70769 -8.52843 0 -8.52843 z" stroke-linecap="round" />
</g>
<g transform="matrix(0.3194936376 0 0 0.3385026087 267.6908647154 197.3939748582)" id="XrJF84EWqSPMoTHBMSk5p"  >
<path style="stroke: rgb(0,0,0); stroke-width: 1; stroke-dasharray: none; stroke-linecap: butt; stroke-dashoffset: 0; stroke-linejoin: miter; stroke-miterlimit: 4; fill: none; fill-rule: nonzero; opacity: 1;" vector-effect="non-scaling-stroke"  transform=" translate(0, 0)" d="M 0 -8.52843 C 4.70769 -8.52843 8.52843 -4.70769 8.52843 0 C 8.52843 4.70769 4.70769 8.52843 0 8.52843 C -4.70769 8.52843 -8.52843 4.70769 -8.52843 0 C -8.52843 -4.70769 -4.70769 -8.52843 0 -8.52843 z" stroke-linecap="round" />
</g>
<g transform="matrix(0.3194936376 0 0 0.3385026087 275.9602739263 196.3403081487)" id="4XHJiy5ghkDSh6xZb0yTW"  >
<path style="stroke: rgb(0,0,0); stroke-width: 1; stroke-dasharray: none; stroke-linecap: butt; stroke-dashoffset: 0; stroke-linejoin: miter; stroke-miterlimit: 4; fill: none; fill-rule: nonzero; opacity: 1;" vector-effect="non-scaling-stroke"  transform=" translate(0, 0)" d="M 0 -8.52843 C 4.70769 -8.52843 8.52843 -4.70769 8.52843 0 C 8.52843 4.70769 4.70769 8.52843 0 8.52843 C -4.70769 8.52843 -8.52843 4.70769 -8.52843 0 C -8.52843 -4.70769 -4.70769 -8.52843 0 -8.52843 z" stroke-linecap="round" />
</g>
<g transform="matrix(0.3194936376 0 0 0.3385026087 283.9374526784 195.5148364506)" id="4u49QQlaTTGm_B8h3T2GR"  >
<path style="stroke: rgb(0,0,0); stroke-width: 1; stroke-dasharray: none; stroke-linecap: butt; stroke-dashoffset: 0; stroke-linejoin: miter; stroke-miterlimit: 4; fill: none; fill-rule: nonzero; opacity: 1;" vector-effect="non-scaling-stroke"  transform=" translate(0, 0)" d="M 0 -8.52843 C 4.70769 -8.52843 8.52843 -4.70769 8.52843 0 C 8.52843 4.70769 4.70769 8.52843 0 8.52843 C -4.70769 8.52843 -8.52843 4.70769 -8.52843 0 C -8.52843 -4.70769 -4.70769 -8.52843 0 -8.52843 z" stroke-linecap="round" />
</g>
<g transform="matrix(0.3194936376 0 0 0.3385026087 291.5789621124 194.7837043751)" id="G4TU5h63Qpsnz9edqRkox"  >
<path style="stroke: rgb(0,0,0); stroke-width: 1; stroke-dasharray: none; stroke-linecap: butt; stroke-dashoffset: 0; stroke-linejoin: miter; stroke-miterlimit: 4; fill: none; fill-rule: nonzero; opacity: 1;" vector-effect="non-scaling-stroke"  transform=" translate(0, 0)" d="M 0 -8.52843 C 4.70769 -8.52843 8.52843 -4.70769 8.52843 0 C 8.52843 4.70769 4.70769 8.52843 0 8.52843 C -4.70769 8.52843 -8.52843 4.70769 -8.52843 0 C -8.52843 -4.70769 -4.70769 -8.52843 0 -8.52843 z" stroke-linecap="round" />
</g>
<g transform="matrix(0.3194936376 0 0 0.3385026087 299.4273536784 194.0070790551)" id="1_TWLJTvsZOHRcc2Mgddk"  >
<path style="stroke: rgb(0,0,0); stroke-width: 1; stroke-dasharray: none; stroke-linecap: butt; stroke-dashoffset: 0; stroke-linejoin: miter; stroke-miterlimit: 4; fill: none; fill-rule: nonzero; opacity: 1;" vector-effect="non-scaling-stroke"  transform=" translate(0, 0)" d="M 0 -8.52843 C 4.70769 -8.52843 8.52843 -4.70769 8.52843 0 C 8.52843 4.70769 4.70769 8.52843 0 8.52843 C -4.70769 8.52843 -8.52843 4.70769 -8.52843 0 C -8.52843 -4.70769 -4.70769 -8.52843 0 -8.52843 z" stroke-linecap="round" />
</g>
<g transform="matrix(0.3194936376 0 0 0.3385026087 307.1794766051 193.7577609788)" id="EHCgQq0JZDmcJQoO7sAcV"  >
<path style="stroke: rgb(0,0,0); stroke-width: 1; stroke-dasharray: none; stroke-linecap: butt; stroke-dashoffset: 0; stroke-linejoin: miter; stroke-miterlimit: 4; fill: none; fill-rule: nonzero; opacity: 1;" vector-effect="non-scaling-stroke"  transform=" translate(0, 0)" d="M 0 -8.52843 C 4.70769 -8.52843 8.52843 -4.70769 8.52843 0 C 8.52843 4.70769 4.70769 8.52843 0 8.52843 C -4.70769 8.52843 -8.52843 4.70769 -8.52843 0 C -8.52843 -4.70769 -4.70769 -8.52843 0 -8.52843 z" stroke-linecap="round" />
</g>
<g transform="matrix(0.3194936376 0 0 0.3385026087 314.9845121119 193.493074084)" id="J6sMR9bkB0LVQwA2sjptH"  >
<path style="stroke: rgb(0,0,0); stroke-width: 1; stroke-dasharray: none; stroke-linecap: butt; stroke-dashoffset: 0; stroke-linejoin: miter; stroke-miterlimit: 4; fill: none; fill-rule: nonzero; opacity: 1;" vector-effect="non-scaling-stroke"  transform=" translate(0, 0)" d="M 0 -8.52843 C 4.70769 -8.52843 8.52843 -4.70769 8.52843 0 C 8.52843 4.70769 4.70769 8.52843 0 8.52843 C -4.70769 8.52843 -8.52843 4.70769 -8.52843 0 C -8.52843 -4.70769 -4.70769 -8.52843 0 -8.52843 z" stroke-linecap="round" />
</g>
<g transform="matrix(0.3194936376 0 0 0.3385026087 322.5708213144 193.493074084)" id="BjGIsXJ38ozb9ruWvSwef"  >
<path style="stroke: rgb(0,0,0); stroke-width: 1; stroke-dasharray: none; stroke-linecap: butt; stroke-dashoffset: 0; stroke-linejoin: miter; stroke-miterlimit: 4; fill: none; fill-rule: nonzero; opacity: 1;" vector-effect="non-scaling-stroke"  transform=" translate(0, 0)" d="M 0 -8.52843 C 4.70769 -8.52843 8.52843 -4.70769 8.52843 0 C 8.52843 4.70769 4.70769 8.52843 0 8.52843 C -4.70769 8.52843 -8.52843 4.70769 -8.52843 0 C -8.52843 -4.70769 -4.70769 -8.52843 0 -8.52843 z" stroke-linecap="round" />
</g>
<g transform="matrix(0.3194936376 0 0 0.3385026087 329.8844475541 192.9534123456)" id="RwhYeqMVX6LBcn-zTOQi4"  >
<path style="stroke: rgb(0,0,0); stroke-width: 1; stroke-dasharray: none; stroke-linecap: butt; stroke-dashoffset: 0; stroke-linejoin: miter; stroke-miterlimit: 4; fill: none; fill-rule: nonzero; opacity: 1;" vector-effect="non-scaling-stroke"  transform=" translate(0, 0)" d="M 0 -8.52843 C 4.70769 -8.52843 8.52843 -4.70769 8.52843 0 C 8.52843 4.70769 4.70769 8.52843 0 8.52843 C -4.70769 8.52843 -8.52843 4.70769 -8.52843 0 C -8.52843 -4.70769 -4.70769 -8.52843 0 -8.52843 z" stroke-linecap="round" />
</g>
<g transform="matrix(0.3194936376 0 0 0.3385026087 337.8185986193 192.9534123456)" id="_CmK8yHl8PspVGjDXrfxC"  >
<path style="stroke: rgb(0,0,0); stroke-width: 1; stroke-dasharray: none; stroke-linecap: butt; stroke-dashoffset: 0; stroke-linejoin: miter; stroke-miterlimit: 4; fill: none; fill-rule: nonzero; opacity: 1;" vector-effect="non-scaling-stroke"  transform=" translate(0, 0)" d="M 0 -8.52843 C 4.70769 -8.52843 8.52843 -4.70769 8.52843 0 C 8.52843 4.70769 4.70769 8.52843 0 8.52843 C -4.70769 8.52843 -8.52843 4.70769 -8.52843 0 C -8.52843 -4.70769 -4.70769 -8.52843 0 -8.52843 z" stroke-linecap="round" />
</g>
<g transform="matrix(0.3194936376 0 0 0.3385026087 345.0426141132 192.5596098924)" id="PFYn4YWPDjtjP7SWFbR-2"  >
<path style="stroke: rgb(0,0,0); stroke-width: 1; stroke-dasharray: none; stroke-linecap: butt; stroke-dashoffset: 0; stroke-linejoin: miter; stroke-miterlimit: 4; fill: none; fill-rule: nonzero; opacity: 1;" vector-effect="non-scaling-stroke"  transform=" translate(0, 0)" d="M 0 -8.52843 C 4.70769 -8.52843 8.52843 -4.70769 8.52843 0 C 8.52843 4.70769 4.70769 8.52843 0 8.52843 C -4.70769 8.52843 -8.52843 4.70769 -8.52843 0 C -8.52843 -4.70769 -4.70769 -8.52843 0 -8.52843 z" stroke-linecap="round" />
</g>
<g transform="matrix(0.3194936376 0 0 0.3385026087 352.6539762823 192.5596098924)" id="p3p1oUF3MO8AtPEBNvffw"  >
<path style="stroke: rgb(0,0,0); stroke-width: 1; stroke-dasharray: none; stroke-linecap: butt; stroke-dashoffset: 0; stroke-linejoin: miter; stroke-miterlimit: 4; fill: none; fill-rule: nonzero; opacity: 1;" vector-effect="non-scaling-stroke"  transform=" translate(0, 0)" d="M 0 -8.52843 C 4.70769 -8.52843 8.52843 -4.70769 8.52843 0 C 8.52843 4.70769 4.70769 8.52843 0 8.52843 C -4.70769 8.52843 -8.52843 4.70769 -8.52843 0 C -8.52843 -4.70769 -4.70769 -8.52843 0 -8.52843 z" stroke-linecap="round" />
</g>
<g transform="matrix(0.3194936376 0 0 0.3385026087 360.0071073346 192.5596098924)" id="gg_gKBcA2WeCJh1so9c52"  >
<path style="stroke: rgb(0,0,0); stroke-width: 1; stroke-dasharray: none; stroke-linecap: butt; stroke-dashoffset: 0; stroke-linejoin: miter; stroke-miterlimit: 4; fill: none; fill-rule: nonzero; opacity: 1;" vector-effect="non-scaling-stroke"  transform=" translate(0, 0)" d="M 0 -8.52843 C 4.70769 -8.52843 8.52843 -4.70769 8.52843 0 C 8.52843 4.70769 4.70769 8.52843 0 8.52843 C -4.70769 8.52843 -8.52843 4.70769 -8.52843 0 C -8.52843 -4.70769 -4.70769 -8.52843 0 -8.52843 z" stroke-linecap="round" />
</g>
<g transform="matrix(0.3194936376 0 0 0.3385026087 367.157366402 192.9534123456)" id="I_YyESsZGsoUZu0KltNBX"  >
<path style="stroke: rgb(0,0,0); stroke-width: 1; stroke-dasharray: none; stroke-linecap: butt; stroke-dashoffset: 0; stroke-linejoin: miter; stroke-miterlimit: 4; fill: none; fill-rule: nonzero; opacity: 1;" vector-effect="non-scaling-stroke"  transform=" translate(0, 0)" d="M 0 -8.52843 C 4.70769 -8.52843 8.52843 -4.70769 8.52843 0 C 8.52843 4.70769 4.70769 8.52843 0 8.52843 C -4.70769 8.52843 -8.52843 4.70769 -8.52843 0 C -8.52843 -4.70769 -4.70769 -8.52843 0 -8.52843 z" stroke-linecap="round" />
</g>
<g transform="matrix(0.3194936376 0 0 0.3385026087 374.2550918401 193.2331850219)" id="L-FK1cAnFwRicSMotDpvk"  >
<path style="stroke: rgb(0,0,0); stroke-width: 1; stroke-dasharray: none; stroke-linecap: butt; stroke-dashoffset: 0; stroke-linejoin: miter; stroke-miterlimit: 4; fill: none; fill-rule: nonzero; opacity: 1;" vector-effect="non-scaling-stroke"  transform=" translate(0, 0)" d="M 0 -8.52843 C 4.70769 -8.52843 8.52843 -4.70769 8.52843 0 C 8.52843 4.70769 4.70769 8.52843 0 8.52843 C -4.70769 8.52843 -8.52843 4.70769 -8.52843 0 C -8.52843 -4.70769 -4.70769 -8.52843 0 -8.52843 z" stroke-linecap="round" />
</g>
<g transform="matrix(0.3194936376 0 0 0.3385026087 391.2499104929 202.0249839106)" id="2o6hu3qUApsXTIOegCsc4"  >
<path style="stroke: rgb(0,0,0); stroke-width: 1; stroke-dasharray: none; stroke-linecap: butt; stroke-dashoffset: 0; stroke-linejoin: miter; stroke-miterlimit: 4; fill: none; fill-rule: nonzero; opacity: 1;" vector-effect="non-scaling-stroke"  transform=" translate(0, 0)" d="M 0 -8.52843 C 4.70769 -8.52843 8.52843 -4.70769 8.52843 0 C 8.52843 4.70769 4.70769 8.52843 0 8.52843 C -4.70769 8.52843 -8.52843 4.70769 -8.52843 0 C -8.52843 -4.70769 -4.70769 -8.52843 0 -8.52843 z" stroke-linecap="round" />
</g>
<g transform="matrix(0.3194936376 0 0 0.3385026087 392.1469257286 210.1055299653)" id="4UAOzu0eqozIlt37XP7wr"  >
<path style="stroke: rgb(0,0,0); stroke-width: 1; stroke-dasharray: none; stroke-linecap: butt; stroke-dashoffset: 0; stroke-linejoin: miter; stroke-miterlimit: 4; fill: none; fill-rule: nonzero; opacity: 1;" vector-effect="non-scaling-stroke"  transform=" translate(0, 0)" d="M 0 -8.52843 C 4.70769 -8.52843 8.52843 -4.70769 8.52843 0 C 8.52843 4.70769 4.70769 8.52843 0 8.52843 C -4.70769 8.52843 -8.52843 4.70769 -8.52843 0 C -8.52843 -4.70769 -4.70769 -8.52843 0 -8.52843 z" stroke-linecap="round" />
</g>
<g transform="matrix(0.3194936376 0 0 0.3385026087 393.3109791952 218.0258539392)" id="R2P9Zn38Oh61XpQSSqpB3"  >
<path style="stroke: rgb(0,0,0); stroke-width: 1; stroke-dasharray: none; stroke-linecap: butt; stroke-dashoffset: 0; stroke-linejoin: miter; stroke-miterlimit: 4; fill: none; fill-rule: nonzero; opacity: 1;" vector-effect="non-scaling-stroke"  transform=" translate(0, 0)" d="M 0 -8.52843 C 4.70769 -8.52843 8.52843 -4.70769 8.52843 0 C 8.52843 4.70769 4.70769 8.52843 0 8.52843 C -4.70769 8.52843 -8.52843 4.70769 -8.52843 0 C -8.52843 -4.70769 -4.70769 -8.52843 0 -8.52843 z" stroke-linecap="round" />
</g>
<g transform="matrix(0.3194936376 0 0 0.3385026087 403.941655594 234.5491432547)" id="kAgNzMieMxzdHTxYl2Nop"  >
<path style="stroke: rgb(0,0,0); stroke-width: 1; stroke-dasharray: none; stroke-linecap: butt; stroke-dashoffset: 0; stroke-linejoin: miter; stroke-miterlimit: 4; fill: none; fill-rule: nonzero; opacity: 1;" vector-effect="non-scaling-stroke"  transform=" translate(0, 0)" d="M 0 -8.52843 C 4.70769 -8.52843 8.52843 -4.70769 8.52843 0 C 8.52843 4.70769 4.70769 8.52843 0 8.52843 C -4.70769 8.52843 -8.52843 4.70769 -8.52843 0 C -8.52843 -4.70769 -4.70769 -8.52843 0 -8.52843 z" stroke-linecap="round" />
</g>
<g transform="matrix(0.3194936376 0 0 0.3385026087 412.9030406866 207.4535826828)" id="B7QRTvFaaHaIEr13r1g52"  >
<path style="stroke: rgb(0,0,0); stroke-width: 1; stroke-dasharray: none; stroke-linecap: butt; stroke-dashoffset: 0; stroke-linejoin: miter; stroke-miterlimit: 4; fill: none; fill-rule: nonzero; opacity: 1;" vector-effect="non-scaling-stroke"  transform=" translate(0, 0)" d="M 0 -8.52843 C 4.70769 -8.52843 8.52843 -4.70769 8.52843 0 C 8.52843 4.70769 4.70769 8.52843 0 8.52843 C -4.70769 8.52843 -8.52843 4.70769 -8.52843 0 C -8.52843 -4.70769 -4.70769 -8.52843 0 -8.52843 z" stroke-linecap="round" />
</g>
<g transform="matrix(0.9623190023 0 0 1.019574271 199.8509033173 221.2472833234)" id="H_CiISwtfCuFT3lKWamWD"  >
<path style="stroke: rgb(0,0,0); stroke-width: 1; stroke-dasharray: none; stroke-linecap: butt; stroke-dashoffset: 0; stroke-linejoin: miter; stroke-miterlimit: 4; fill: none; fill-rule: nonzero; opacity: 1;" vector-effect="non-scaling-stroke"  transform=" translate(0, 0)" d="M 0 -8.52843 C 4.70769 -8.52843 8.52843 -4.70769 8.52843 0 C 8.52843 4.70769 4.70769 8.52843 0 8.52843 C -4.70769 8.52843 -8.52843 4.70769 -8.52843 0 C -8.52843 -4.70769 -4.70769 -8.52843 0 -8.52843 z" stroke-linecap="round" />
</g>
<g transform="matrix(0.9593965906 0.0335028672 -0.0221218534 0.6334869958 175.1604018021 244.1413984597)" id="J-D1WrPFAXQeJfyzkV-rz"  >
<path style="stroke: rgb(0,0,0); stroke-width: 1; stroke-dasharray: none; stroke-linecap: butt; stroke-dashoffset: 0; stroke-linejoin: miter; stroke-miterlimit: 4; fill: none; fill-rule: nonzero; opacity: 1;" vector-effect="non-scaling-stroke"  transform=" translate(0, 0)" d="M 0 -8.52843 C 4.70769 -8.52843 8.52843 -4.70769 8.52843 0 C 8.52843 4.70769 4.70769 8.52843 0 8.52843 C -4.70769 8.52843 -8.52843 4.70769 -8.52843 0 C -8.52843 -4.70769 -4.70769 -8.52843 0 -8.52843 z" stroke-linecap="round" />
</g>
<g transform="matrix(0.7296702623 0.1955145575 -0.1315726856 0.4910359476 460.8068555252 227.8803204295)" id="swVn0WovLtRHuDUQm2C7E"  >
<path style="stroke: rgb(0,0,0); stroke-width: 1; stroke-dasharray: none; stroke-linecap: butt; stroke-dashoffset: 0; stroke-linejoin: miter; stroke-miterlimit: 4; fill: none; fill-rule: nonzero; opacity: 1;" vector-effect="non-scaling-stroke"  transform=" translate(0, 0)" d="M 0 -8.52843 C 4.70769 -8.52843 8.52843 -4.70769 8.52843 0 C 8.52843 4.70769 4.70769 8.52843 0 8.52843 C -4.70769 8.52843 -8.52843 4.70769 -8.52843 0 C -8.52843 -4.70769 -4.70769 -8.52843 0 -8.52843 z" stroke-linecap="round" />
</g>
<g transform="matrix(1 0 0 1 195.0269475922 394.4053530755)" id="a5aNLTgzZ09U7K6XAlqZd"  >
<path style="stroke: rgb(0,0,0); stroke-width: 1; stroke-dasharray: none; stroke-linecap: butt; stroke-dashoffset: 0; stroke-linejoin: miter; stroke-miterlimit: 4; fill: rgb(255,255,255); fill-opacity: 0; fill-rule: nonzero; opacity: 1;" vector-effect="non-scaling-stroke"  transform=" translate(0, 0)" d="M -10.97859 5.12821 C -10.97859 5.12821 2.8652499999999996 4.64377 6.925080000000001 1.4386400000000004 C 10.984910000000001 -1.7664899999999997 10.97859 -5.1282 10.97859 -5.1282" stroke-linecap="round" />
</g>
<g transform="matrix(1 0 0 1 480.4405954387 357.7384595303)" id="QGO8B07ykgig5Vy_-lVOJ"  >
<path style="stroke: rgb(0,0,0); stroke-width: 1; stroke-dasharray: none; stroke-linecap: butt; stroke-dashoffset: 0; stroke-linejoin: miter; stroke-miterlimit: 4; fill: rgb(255,255,255); fill-opacity: 0; fill-rule: nonzero; opacity: 1;" vector-effect="non-scaling-stroke"  transform=" translate(0, 0)" d="M -8.75 1.85567 C -8.17308 1.85567 -1.63462 -2.9645200000000003 2.7884600000000006 -1.61836 C 7.21154 -0.27221000000000006 8.75 1.85567 8.75 1.85567" stroke-linecap="round" />
</g>
<g transform="matrix(1 0 0 1 454.9378865419 376.6208445382)" id="NsKjvRiZIYXkZ8LbSk5G-"  >
<path style="stroke: rgb(0,0,0); stroke-width: 1; stroke-dasharray: none; stroke-linecap: butt; stroke-dashoffset: 0; stroke-linejoin: miter; stroke-miterlimit: 4; fill: rgb(255,255,255); fill-opacity: 0; fill-rule: nonzero; opacity: 1;" vector-effect="non-scaling-stroke"  transform=" translate(0, 0)" d="M 0.73754 -8.89693 L -0.7375300000000001 8.896939999999999" stroke-linecap="round" />
</g>
<g transform="matrix(1 0 0 1 463.4038908365 378.254885468)" id="aKpO0rTaec8gd3qOz_xyD"  >
<path style="stroke: rgb(0,0,0); stroke-width: 1; stroke-dasharray: none; stroke-linecap: butt; stroke-dashoffset: 0; stroke-linejoin: miter; stroke-miterlimit: 4; fill: rgb(255,255,255); fill-opacity: 0; fill-rule: nonzero; opacity: 1;" vector-effect="non-scaling-stroke"  transform=" translate(0, 0)" d="M 1.06195 -9.29204 L -1.0619399999999999 9.29203" stroke-linecap="round" />
</g>
<g transform="matrix(1 0 0 1 220.0408425316 410.5745302725)" id="Sz4EEoatOwnsa_t8msNpr"  >
<path style="stroke: rgb(0,0,0); stroke-width: 1; stroke-dasharray: none; stroke-linecap: butt; stroke-dashoffset: 0; stroke-linejoin: miter; stroke-miterlimit: 4; fill: rgb(255,255,255); fill-opacity: 0; fill-rule: nonzero; opacity: 1;" vector-effect="non-scaling-stroke"  transform=" translate(0, 0)" d="M -4.2356 -12.05836 L 4.2356 12.05835" stroke-linecap="round" />
</g>
<g transform="matrix(1 0 0 1 226.4007704173 406.6321165081)" id="x3_NGknTTOPNa4tLFK3wF"  >
<path style="stroke: rgb(0,0,0); stroke-width: 1; stroke-dasharray: none; stroke-linecap: butt; stroke-dashoffset: 0; stroke-linejoin: miter; stroke-miterlimit: 4; fill: rgb(255,255,255); fill-opacity: 0; fill-rule: nonzero; opacity: 1;" vector-effect="non-scaling-stroke"  transform=" translate(0, 0)" d="M -3.99496 -12.22676 L 3.99496 12.22677" stroke-linecap="round" />
</g>
<g transform="matrix(1 0 0 1 316.1021968289 292.7923973259)" id="ieuW2DPeyS8cNdtbdPleZ"  >
<path style="stroke: rgb(0,0,0); stroke-width: 1; stroke-dasharray: none; stroke-linecap: butt; stroke-dashoffset: 0; stroke-linejoin: miter; stroke-miterlimit: 4; fill: rgb(255,255,255); fill-opacity: 0; fill-rule: nonzero; opacity: 1;" vector-effect="non-scaling-stroke"  transform=" translate(0, 0)" d="M -83.29315 -30.08792 C -83.29315 -30.08792 -72.34424 -12.41273 -69.97198 2.915740000000003 C -67.59972 18.244210000000002 -68.56895 37.70322 -68.56895 37.70322 C -68.56895 37.70322 -70.0288 45.27704 -68.56895 50.7515 C -67.1091 56.22595 -64.45892 57.36179 -64.45892 57.36179 L -48.083580000000005 93.22538 C -48.083580000000005 93.22538 -41.7689 104.96834 -30.398180000000004 108.23937000000001 C -19.027460000000005 111.5104 -15.730880000000004 109.64124000000001 -15.730880000000004 109.64124000000001 C -15.730880000000004 109.64124000000001 12.647139999999995 101.23003000000001 29.781089999999992 99.51663 C 46.915049999999994 97.80323000000001 76.83955999999999 97.61216 76.83955999999999 97.61216 C 76.83955999999999 97.61216 83.9527 98.3631 92.46333999999999 90.97887 C 100.97397999999998 83.59464 102.60100999999999 73.74229 102.60100999999999 73.74229 L 108.23304999999999 31.54488 C 108.23304999999999 31.54488 108.60852 31.511609999999997 108.23304999999999 28.50786 C 107.85757999999998 25.50411 107.22604999999999 24.48162 107.22604999999999 24.48162 C 107.22604999999999 24.48162 98.82381999999998 6.079840000000001 98.82381999999998 -13.214280000000002 C 98.82381999999998 -32.5084 102.60100999999999 -46.694720000000004 102.60100999999999 -46.694720000000004 C 102.60100999999999 -46.694720000000004 104.65898999999999 -54.404120000000006 107.85825999999999 -58.24324 C 111.05752999999999 -62.08236 116.08494999999999 -64.91206 116.08494999999999 -64.91206 L 125.68275999999999 -68.51675999999999 C 125.68275999999999 -68.51675999999999 134.5493 -73.58010999999999 133.63522999999998 -83.63494999999999 C 132.72114999999997 -93.68978999999999 122.75771999999998 -95.88358 122.75771999999998 -95.88358 L 101.10888999999997 -94.14683 C 101.10888999999997 -94.14683 97.98622999999998 -94.50836 95.33540999999997 -94.87398999999999 C 92.68458999999997 -95.23961999999999 89.48531999999997 -94.14683 89.48531999999997 -94.14683 L 84.54930999999998 -104.14618999999999 C 84.54930999999998 -104.14618999999999 85.02695999999997 -104.51181999999999 82.46753999999997 -106.15715999999999 C 79.90812999999997 -107.8025 76.83955999999998 -107.98530999999998 76.83955999999998 -107.98530999999998 C 76.83955999999998 -107.98530999999998 40.75706999999998 -111.39529999999998 0.22033999999997889 -109.70038999999998 C -40.316380000000024 -108.00546999999999 -77.27603000000002 -102.95424999999999 -77.27603000000002 -102.95424999999999 C -77.27603000000002 -102.95424999999999 -79.50598000000002 -102.45980999999999 -81.36012000000002 -100.85288999999999 C -83.21426000000002 -99.24596999999999 -84.11273000000003 -96.77377999999999 -84.11273000000003 -96.77377999999999 L -86.35547000000003 -88.34234999999998 C -86.35547000000003 -88.34234999999998 -88.85914000000002 -88.96039999999998 -91.82576000000003 -88.34234999999998 C -94.79239000000003 -87.72429999999999 -96.60824000000002 -86.51419999999999 -96.60824000000002 -86.51419999999999 L -99.23518000000003 -86.07372999999998 L -119.06099000000003 -86.51419999999999 C -119.06099000000003 -86.51419999999999 -130.83575000000002 -89.63335999999998 -133.70136000000002 -74.31714999999998" stroke-linecap="round" />
</g>
<g transform="matrix(1 0 0 1 328.1781735109 236.8187566975)" id="EUq2ftX33p35K1nMinLoI"  >
<path style="stroke: rgb(0,0,0); stroke-width: 1; stroke-dasharray: none; stroke-linecap: butt; stroke-dashoffset: 0; stroke-linejoin: miter; stroke-miterlimit: 4; fill: rgb(255,255,255); fill-opacity: 0; fill-rule: nonzero; opacity: 1;" vector-effect="non-scaling-stroke"  transform=" translate(0, 0)" d="M -52.2179 -32.75207 C -52.2179 -32.75207 -53.98896 -32.66087 -54.99197 -30.855460000000004 C -55.994980000000005 -29.050040000000003 -55.67853 -27.914720000000003 -55.67853 -27.914720000000003 L -48.993120000000005 31.107479999999995 C -48.993120000000005 31.107479999999995 -48.89074000000001 33.316039999999994 -46.985020000000006 34.82055 C -45.0793 36.32506 -42.47415000000001 36.02222 -42.47415000000001 36.02222 L 52.44999999999999 28.990789999999997 L 52.44999999999999 28.990789999999997 C 53.42657999999999 28.918449999999996 54.32945999999999 28.444499999999998 54.94364999999999 27.681799999999996 C 55.55783999999999 26.919099999999997 55.82835999999999 25.935919999999996 55.69078999999999 24.966379999999994 L 47.55555 -32.368750000000006 C 47.55555 -32.368750000000006 46.73314 -34.400920000000006 44.23314 -35.293780000000005 C 41.73314 -36.186640000000004 40.78828 -36.037890000000004 40.78828 -36.037890000000004 z" stroke-linecap="round" />
</g>
<g transform="matrix(1 0 0 1 329.2110864011 233.0261343831)" id="Qjaq30JDMSc-2qYUByP2Y"  >
<path style="stroke: rgb(0,0,0); stroke-width: 1; stroke-dasharray: none; stroke-linecap: butt; stroke-dashoffset: 0; stroke-linejoin: miter; stroke-miterlimit: 4; fill: rgb(255,255,255); fill-opacity: 0; fill-rule: nonzero; opacity: 1;" vector-effect="non-scaling-stroke"  transform=" translate(0, 0)" d="M -52.5533 -25.57255 L 40.10183 -28.81434 C 42.46117 -28.896890000000003 44.5037 -27.188550000000003 44.83956 -24.851770000000002 L 52.553309999999996 28.817209999999996" stroke-linecap="round" />
</g>
<g transform="matrix(1 0 0 1 457.8868408535 363.2316496101)" id="bao9ZioT8r0sWx9FtHfBu"  >
<path style="stroke: rgb(0,0,0); stroke-width: 1; stroke-dasharray: none; stroke-linecap: butt; stroke-dashoffset: 0; stroke-linejoin: miter; stroke-miterlimit: 4; fill: rgb(255,255,255); fill-opacity: 0; fill-rule: nonzero; opacity: 1;" vector-effect="non-scaling-stroke"  transform=" translate(0, 0)" d="M -1.71142 -0.41827 L 1.71142 0.41827" stroke-linecap="round" />
</g>
<g transform="matrix(1 0 0 1 432.6937218294 304.6544501946)" id="J7NKCAP2hmZZ_w5pkRCG8"  >
<path style="stroke: rgb(0,0,0); stroke-width: 1; stroke-dasharray: none; stroke-linecap: butt; stroke-dashoffset: 0; stroke-linejoin: miter; stroke-miterlimit: 4; fill: rgb(255,255,255); fill-opacity: 0; fill-rule: nonzero; opacity: 1;" vector-effect="non-scaling-stroke"  transform=" translate(0, 0)" d="M 2.05591 -0.36696 L -2.05591 0.36696" stroke-linecap="round" />
</g>
<g transform="matrix(1 0 0 1 204.3392607178 433.9226693756)" id="a5wpHbAZAs-uvwcFQyYUG"  >
<path style="stroke: rgb(0,0,0); stroke-width: 1; stroke-dasharray: none; stroke-linecap: butt; stroke-dashoffset: 0; stroke-linejoin: miter; stroke-miterlimit: 4; fill: rgb(255,255,255); fill-opacity: 0; fill-rule: nonzero; opacity: 1;" vector-effect="non-scaling-stroke"  transform=" translate(0, 0)" d="M 0 0 z" stroke-linecap="round" />
</g>
</svg>