<?xml version="1.0" encoding="UTF-8" standalone="no" ?>
<!DOCTYPE svg PUBLIC "-//W3C//DTD SVG 1.1//EN" "http://www.w3.org/Graphics/SVG/1.1/DTD/svg11.dtd">
<svg xmlns="http://www.w3.org/2000/svg" xmlns:xlink="http://www.w3.org/1999/xlink" version="1.1" width="550" height="640" viewBox="0 0 550 640" xml:space="preserve">
<desc>Created with Fabric.js 5.3.0</desc>
<defs>
</defs>
<g transform="matrix(2.5294870293 0 0 2.5294870293 184.4621064443 299.5117051272)" id="j26QxBntimePj24FWKxLW"  >
<path style="stroke: rgb(0,0,0); stroke-width: 1; stroke-dasharray: none; stroke-linecap: butt; stroke-dashoffset: 0; stroke-linejoin: miter; stroke-miterlimit: 4; fill: none; fill-rule: nonzero; opacity: 1;" vector-effect="non-scaling-stroke"  transform=" translate(0.000005, -0.000005)" d="M 50.17861 -77.80525 L 61.37724 -39.179500000000004 L -30.83833 -48.16154 L -4.491019999999999 55.43127 L 27.22653 40.988299999999995 L -0.8981999999999992 3.2637499999999946 L 9.28144 -11.706310000000006 L 56.466300000000004 -5.369480000000006 L 3.2934100000000015 89.4913 L -55.98803 69.13202 L -61.377250000000004 -76.37696000000001 L -8.211950000000002 -89.49129 z" stroke-linecap="round" />
</g>
<g transform="matrix(2.5294870293 0 0 2.5294870293 335.2998105245 393.8456209864)" id="blPaHbGX-88iotr8iGjSF"  >
<path style="stroke: rgb(0,0,0); stroke-width: 1; stroke-dasharray: none; stroke-linecap: butt; stroke-dashoffset: 0; stroke-linejoin: miter; stroke-miterlimit: 4; fill: none; fill-rule: nonzero; opacity: 1;" vector-effect="non-scaling-stroke"  transform=" translate(-0.000005, 0)" d="M 17.21557 -63.17365 L 37.57485 -93.11377 L 50.149699999999996 -87.12575 L 59.13173999999999 82.33533000000001 L -45.658680000000004 93.11377000000002 L -59.131730000000005 72.75449000000002 L -31.905200000000004 17.065870000000018 L -12.724540000000005 60.17964000000002 L 23.203599999999994 51.69760000000002 z" stroke-linecap="round" />
</g>
<g transform="matrix(2.5294870293 0 0 2.5294870293 125.8976657327 275.1259807333)" id="NEm7SnHTqDsO1i-Vbf0eY"  >
<path style="stroke: rgb(0,0,0); stroke-width: 1; stroke-dasharray: none; stroke-linecap: butt; stroke-dashoffset: 0; stroke-linejoin: miter; stroke-miterlimit: 4; fill: rgb(255,255,255); fill-opacity: 0; fill-rule: nonzero; opacity: 1;" vector-effect="non-scaling-stroke"  transform=" translate(0, 0)" d="M 0 0" stroke-linecap="round" />
</g>
<g transform="matrix(2.5294870293 0 0 2.5294870293 186.4915934736 175.1582298743)" id="RH_OQnH6s1kEe1B8kqne0"  >
<path style="stroke: rgb(0,0,0); stroke-width: 1; stroke-dasharray: none; stroke-linecap: butt; stroke-dashoffset: 0; stroke-linejoin: miter; stroke-miterlimit: 4; fill: none; fill-rule: nonzero; opacity: 1;" vector-effect="non-scaling-stroke"  transform=" translate(-0.000005, 0.000005)" d="M 61.87725 7.78443 L -61.87724000000001 28.14371 L -61.87724000000001 -28.143720000000002 z" stroke-linecap="round" />
</g>
<g transform="matrix(2.5294870293 0 0 2.5294870293 153.0722060345 460.494574883)" id="9R_rVK5IqxLGWrfONenAp"  >
<path style="stroke: rgb(0,0,0); stroke-width: 1; stroke-dasharray: none; stroke-linecap: butt; stroke-dashoffset: 0; stroke-linejoin: miter; stroke-miterlimit: 4; fill: none; fill-rule: nonzero; opacity: 1;" vector-effect="non-scaling-stroke"  transform=" translate(-0.000005, 0)" d="M -45.35238 6.53306 L 45.35239 -25.848800000000004 L 16.01107 25.848799999999997 z" stroke-linecap="round" />
</g>
<g transform="matrix(2.5294870293 0 0 2.5294870293 260.5133302417 287.8756556251)" id="g6lunDwuhrvWT44nB5d3D"  >
<path style="stroke: rgb(0,0,0); stroke-width: 1; stroke-dasharray: none; stroke-linecap: butt; stroke-dashoffset: 0; stroke-linejoin: miter; stroke-miterlimit: 4; fill: none; fill-rule: nonzero; opacity: 1;" vector-effect="non-scaling-stroke"  transform=" translate(0, 0.000005)" d="M -29.56587 8.63323 L 29.56587 -1.5193200000000004 L -20.284429999999997 -8.63324 z" stroke-linecap="round" />
</g>
<g transform="matrix(2.5294870293 0 0 2.5294870293 426.5582497557 234.0144245893)" id="hy-6uFn5ZMI84eMkGjzId"  >
<path style="stroke: rgb(0,0,0); stroke-width: 1; stroke-dasharray: none; stroke-linecap: butt; stroke-dashoffset: 0; stroke-linejoin: miter; stroke-miterlimit: 4; fill: none; fill-rule: nonzero; opacity: 1;" vector-effect="non-scaling-stroke"  transform=" translate(0, 0.000005)" d="M -19.46108 1.88166 L -15.269459999999999 21.29334 L 19.46108 30.426569999999998 L 15.868269999999999 -23.26804 L 2.0958099999999984 -30.42658 z" stroke-linecap="round" />
</g>
<g transform="matrix(2.5294870293 0 0 2.5294870293 260.5133302417 533.1603457205)" id="EooJ0ofb5M-NfIKkrCiyM"  >
<path style="stroke: rgb(0,0,0); stroke-width: 1; stroke-dasharray: none; stroke-linecap: butt; stroke-dashoffset: 0; stroke-linejoin: miter; stroke-miterlimit: 4; fill: none; fill-rule: nonzero; opacity: 1;" vector-effect="non-scaling-stroke"  transform=" translate(0, 0.000005)" d="M -29.56587 16.19376 L -2.33934 -38.537499999999994 L 29.56587 38.537490000000005 L -15.49401 38.537490000000005 z" stroke-linecap="round" />
</g>
<g transform="matrix(1.4506499942 0 0 1.4506499942 210.8945036467 497.1620756763)" id="mWIW4-b6GfZCRmzaVkNaA"  >
<path style="stroke: rgb(0,0,0); stroke-width: 0.5; stroke-dasharray: none; stroke-linecap: butt; stroke-dashoffset: 0; stroke-linejoin: miter; stroke-miterlimit: 4; fill: rgb(255,255,255); fill-opacity: 0; fill-rule: nonzero; opacity: 1;" vector-effect="non-scaling-stroke"  transform=" translate(0.000005, 0)" d="M 50.72305 -86.89806 L -50.723060000000004 86.89806" stroke-linecap="round" />
</g>
<g transform="matrix(6.0296520816 0 0 6.0296520816 361.0224672942 167.4281207235)" id="rY5U2Z-7L3bnTAAaPLAKu"  >
<path style="stroke: rgb(0,0,0); stroke-width: 0.4; stroke-dasharray: none; stroke-linecap: butt; stroke-dashoffset: 0; stroke-linejoin: miter; stroke-miterlimit: 4; fill: rgb(255,255,255); fill-opacity: 0; fill-rule: nonzero; opacity: 1;" vector-effect="non-scaling-stroke"  transform=" translate(-0.000005, 0)" d="M 6.58683 27.66025 C 6.58683 27.66025 -3.2934100000000006 -13.83013 -6.58682 -27.66025" stroke-linecap="round" />
</g>
<g transform="matrix(6.1197909789 0 0 6.1197909789 121.9185016223 82.4668598774)" id="A0mRojgzA1vC9eWCpIY9H"  >
<path style="stroke: rgb(0,0,0); stroke-width: 0.4; stroke-dasharray: none; stroke-linecap: butt; stroke-dashoffset: 0; stroke-linejoin: miter; stroke-miterlimit: 4; fill: rgb(255,255,255); fill-opacity: 0; fill-rule: nonzero; opacity: 1;" vector-effect="non-scaling-stroke"  transform=" translate(0.000005, 0)" d="M -19.81638 5.01486 L 19.816370000000003 -5.01486" stroke-linecap="round" />
</g>
<g transform="matrix(7.6669234355 0 0 7.6669234355 343.5092833981 616.4417492556)" id="Qr4g22Ie_mfS8pH0NWRrN"  >
<path style="stroke: rgb(0,0,0); stroke-width: 0.4; stroke-dasharray: none; stroke-linecap: butt; stroke-dashoffset: 0; stroke-linejoin: miter; stroke-miterlimit: 4; fill: rgb(255,255,255); fill-opacity: 0; fill-rule: nonzero; opacity: 1;" vector-effect="non-scaling-stroke"  transform=" translate(0.000005, 0)" d="M -26.40918 2.61076 L 26.409170000000003 -2.61076" stroke-linecap="round" />
</g>
</svg>