<?xml version="1.0" encoding="UTF-8" standalone="no" ?>
<!DOCTYPE svg PUBLIC "-//W3C//DTD SVG 1.1//EN" "http://www.w3.org/Graphics/SVG/1.1/DTD/svg11.dtd">
<svg xmlns="http://www.w3.org/2000/svg" xmlns:xlink="http://www.w3.org/1999/xlink" version="1.1" width="640" height="640" viewBox="0 0 640 640" xml:space="preserve">
<desc>Created with Fabric.js 5.3.0</desc>
<defs>
</defs>
<g transform="matrix(1 0 0 1 254.1167023131 426.8449623988)" id="sbbmqPIx0QSLe58fJxCMs"  >
<path style="stroke: rgb(0,0,0); stroke-width: 1; stroke-dasharray: none; stroke-linecap: butt; stroke-dashoffset: 0; stroke-linejoin: miter; stroke-miterlimit: 4; fill: rgb(255,255,255); fill-rule: nonzero; opacity: 1;" vector-effect="non-scaling-stroke"  transform=" translate(0, 0)" d="M 0 0" stroke-linecap="round" />
</g>
<g transform="matrix(1 0 0 1 226.3003584757 414.4013296631)" id="uikWXWKF2rYuWlLCZfDyS"  >
<path style="stroke: rgb(0,0,0); stroke-width: 1; stroke-dasharray: none; stroke-linecap: round; stroke-dashoffset: 0; stroke-linejoin: round; stroke-miterlimit: 10; fill: rgb(255,255,255); fill-rule: nonzero; opacity: 1;" vector-effect="non-scaling-stroke"  transform=" translate(-226.3003584757, -414.4013296631)" d="M 226.29935847565056 414.40132966311967 L 226.30135847565057 414.40132966311967" stroke-linecap="round" />
</g>
<g transform="matrix(1 0 0 1.2205457605 394.6159457735 363.8860875763)" id="iPrg6EH_rKEPmPbbVrQGa"  >
<path style="stroke: rgb(0,0,0); stroke-width: 1; stroke-dasharray: none; stroke-linecap: butt; stroke-dashoffset: 0; stroke-linejoin: miter; stroke-miterlimit: 4; fill: rgb(255,255,255); fill-rule: nonzero; opacity: 1;" vector-effect="non-scaling-stroke"  transform=" translate(0, 0)" d="M 3.86154 -75.11148 L -1.92118 -75.11148 L -3.33761 -75.11148 L -3.86154 75.11147 L 3.02781 75.11147 z" stroke-linecap="round" />
</g>
<g transform="matrix(1 0 0 1.2104905703 229.762854123 363.1899045259)" id="yg1MBJeuZ9Z38yJsrqO9O"  >
<path style="stroke: rgb(0,0,0); stroke-width: 1; stroke-dasharray: none; stroke-linecap: butt; stroke-dashoffset: 0; stroke-linejoin: miter; stroke-miterlimit: 4; fill: rgb(255,255,255); fill-rule: nonzero; opacity: 1;" vector-effect="non-scaling-stroke"  transform=" translate(0, 0)" d="M -5.12709 -75.61148 L -2.79428 75.61147 L 5.127089999999999 75.61147 L 3.803839999999999 -75.11148 z" stroke-linecap="round" />
</g>
<g transform="matrix(1 0 0 0.4590814508 311.4333881806 468.4531027889)" id="itTZ3_aGpXJ8EGsJLdj09"  >
<path style="stroke: rgb(0,0,0); stroke-width: 1; stroke-dasharray: none; stroke-linecap: butt; stroke-dashoffset: 0; stroke-linejoin: miter; stroke-miterlimit: 4; fill: rgb(255,255,255); fill-rule: nonzero; opacity: 1;" vector-effect="non-scaling-stroke"  transform=" translate(0, 0)" d="M -82.74008 -31.03228 L -119.19891000000001 31.03228 L 119.19890999999998 31.03228 L 81.28523999999999 -28.07421 L -79.89366000000001 -31.03229" stroke-linecap="round" />
</g>
<g transform="matrix(1 0 0 0.4069354197 312.188811553 457.1160924647)" id="kjIVY8saRIWL8uVojfomv"  >
<path style="stroke: rgb(0,0,0); stroke-width: 1; stroke-dasharray: none; stroke-linecap: butt; stroke-dashoffset: 0; stroke-linejoin: miter; stroke-miterlimit: 4; fill: rgb(255,255,255); fill-rule: nonzero; opacity: 1;" vector-effect="non-scaling-stroke"  transform=" translate(0, 0)" d="M -66.74846 -18.13625 L -78.96476 18.136259999999996 L 78.96476 18.136259999999996 L 63.54626 -17.987090000000006 z" stroke-linecap="round" />
</g>
<g transform="matrix(1 0 0 1 216.815367875 262.6603585385)" id="eTEc7-BYxOPleDQ8blhT_"  >
<path style="stroke: rgb(0,0,0); stroke-width: 1; stroke-dasharray: none; stroke-linecap: butt; stroke-dashoffset: 0; stroke-linejoin: miter; stroke-miterlimit: 4; fill: rgb(255,255,255); fill-rule: nonzero; opacity: 1;" vector-effect="non-scaling-stroke"  transform=" translate(0, 0)" d="M -14.59936 -3.67466 L 8.232029999999998 8.50256 L 14.599359999999997 9.04873 L 14.599359999999997 1.8736900000000007 L -2.691950000000002 -8.50833 L -14.177870000000002 -9.04875 z" stroke-linecap="round" />
</g>
<g transform="matrix(1 0 0 1 406.9515481475 262.4103585385)" id="z05YtlFCNKp8UkmzbZlA4"  >
<path style="stroke: rgb(0,0,0); stroke-width: 1; stroke-dasharray: none; stroke-linecap: butt; stroke-dashoffset: 0; stroke-linejoin: miter; stroke-miterlimit: 4; fill: rgb(255,255,255); fill-rule: nonzero; opacity: 1;" vector-effect="non-scaling-stroke"  transform=" translate(0, 0)" d="M 1.48983 -8.25832 L -15.173219999999999 1.7537200000000013 L -15.173219999999999 9.298730000000003 L -7.904499999999999 8.916510000000002 L 14.577090000000002 -4.106749999999998 L 15.173210000000001 -9.298749999999998 z" stroke-linecap="round" />
</g>
<g transform="matrix(1 0 0 1 214.4299506376 433.2436619631)" id="VJxttggm9VgB7YgkBCyHW"  >
<path style="stroke: rgb(0,0,0); stroke-width: 1; stroke-dasharray: none; stroke-linecap: butt; stroke-dashoffset: 0; stroke-linejoin: miter; stroke-miterlimit: 4; fill: rgb(255,255,255); fill-rule: nonzero; opacity: 1;" vector-effect="non-scaling-stroke"  transform=" translate(0, 0)" d="M -17.7941 -1.8448 L 12.371410000000001 -7.3987 L 17.79411 -7.3987 L 17.79411 -1.2175599999999998 L -10.088000000000001 7.398700000000001 L -10.088000000000001 -1.2175599999999998 z" stroke-linecap="round" />
</g>
<g transform="matrix(0.8665263741 0 0 0.8665263741 218.3156853224 429.4424234126)" id="zJqUZErpHDiLQ10NGmRmH"  >
<path style="stroke: rgb(0,0,0); stroke-width: 1; stroke-dasharray: none; stroke-linecap: butt; stroke-dashoffset: 0; stroke-linejoin: miter; stroke-miterlimit: 4; fill: rgb(255,255,255); fill-rule: nonzero; opacity: 1;" vector-effect="non-scaling-stroke"  transform=" translate(0, 0)" d="M -13.38568 2.59102 L 13.38568 -2.59102" stroke-linecap="round" />
</g>
<g transform="matrix(1 0 0 1 407.7533946501 434.230868036)" id="rIAsmwYBsw07zobkl16HU"  >
<path style="stroke: rgb(0,0,0); stroke-width: 1; stroke-dasharray: none; stroke-linecap: butt; stroke-dashoffset: 0; stroke-linejoin: miter; stroke-miterlimit: 4; fill: rgb(255,255,255); fill-rule: nonzero; opacity: 1;" vector-effect="non-scaling-stroke"  transform=" translate(0, 0)" d="M -16.47506 -3.25364 L 10.845040000000001 8.967400000000001 L 10.845040000000001 0.523690000000002 L 16.475070000000002 -0.459329999999998 L -0.8018399999999986 -6.3963699999999974 L -8.775899999999998 -8.967409999999997 L -16.47506 -8.967409999999997 L -16.47506 -3.253639999999997" stroke-linecap="round" />
</g>
<g transform="matrix(1 0 0 1 404.337378149 429.9596636383)" id="XwSUmsgPEis7is54NaQjv"  >
<path style="stroke: rgb(0,0,0); stroke-width: 1; stroke-dasharray: none; stroke-linecap: butt; stroke-dashoffset: 0; stroke-linejoin: miter; stroke-miterlimit: 4; fill: rgb(255,255,255); fill-rule: nonzero; opacity: 1;" vector-effect="non-scaling-stroke"  transform=" translate(0, 0)" d="M -11.64261 -4.2712 L 11.642619999999999 4.27121" stroke-linecap="round" />
</g>
<g transform="matrix(1 0 0 1 239.3777829153 428.8891833903)" id="uX-iRH_WdjQE5xOEszIwc"  >
<path style="stroke: rgb(0,0,0); stroke-width: 1; stroke-dasharray: none; stroke-linecap: butt; stroke-dashoffset: 0; stroke-linejoin: miter; stroke-miterlimit: 4; fill: rgb(255,255,255); fill-rule: nonzero; opacity: 1;" vector-effect="non-scaling-stroke"  transform=" translate(0, 0)" d="M 0 0" stroke-linecap="round" />
</g>
<g transform="matrix(1 0 0 1 311.4333881806 501.4304263198)" id="VuWgLjdIPnbKKljLJEP-F"  >
<path style="stroke: rgb(0,0,0); stroke-width: 1; stroke-dasharray: none; stroke-linecap: butt; stroke-dashoffset: 0; stroke-linejoin: miter; stroke-miterlimit: 4; fill: rgb(255,255,255); fill-rule: nonzero; opacity: 1;" vector-effect="non-scaling-stroke"  transform=" translate(0, 0)" d="M -119.69891 -18.94804 L -118.02223 12.186440000000001 L -118.02223 12.186440000000001 C -117.81803 15.978180000000002 -114.68393999999999 18.948030000000003 -110.88671 18.948030000000003 L 111.85390000000001 18.948030000000003 L 111.85390000000001 18.948030000000003 C 115.64998000000001 18.948030000000003 118.75628 15.926270000000002 118.861 12.131640000000003 L 119.69891 -18.230979999999995 z" stroke-linecap="round" />
</g>
<g transform="matrix(1 0 0 1 315.6273496651 431.2240954129)" id="q7PKCm_fWe9xjeQ0-pqx3"  >
<path style="stroke: rgb(0,0,0); stroke-width: 1; stroke-dasharray: none; stroke-linecap: butt; stroke-dashoffset: 0; stroke-linejoin: miter; stroke-miterlimit: 4; fill: rgb(255,255,255); fill-rule: nonzero; opacity: 1;" vector-effect="non-scaling-stroke"  transform=" translate(0, 0)" d="M -84.62142 -4.37913 L 86.06487000000001 -2.83491 L 88.32599000000002 -2.0770099999999996 L 88.32599000000002 4.379130000000001 L -88.32598999999999 3.506770000000001 L -88.32598999999999 -3.990909999999999 z" stroke-linecap="round" />
</g>
<g transform="matrix(1 0 0 1 314.7462923964 429.1470847992)" id="xdPC_mEIM8J_i7EFyjEDX"  >
<path style="stroke: rgb(0,0,0); stroke-width: 1; stroke-dasharray: none; stroke-linecap: butt; stroke-dashoffset: 0; stroke-linejoin: miter; stroke-miterlimit: 4; fill: rgb(255,255,255); fill-rule: nonzero; opacity: 1;" vector-effect="non-scaling-stroke"  transform=" translate(0, 0)" d="M -84.80176 -0.81258 L 84.80176 0.81258" stroke-linecap="round" />
</g>
<g transform="matrix(1 0 0 1 197.1729528141 363.1899045259)" id="m9cGcbS30fB24FVqt1c84"  >
<path style="stroke: rgb(0,0,0); stroke-width: 1; stroke-dasharray: none; stroke-linecap: butt; stroke-dashoffset: 0; stroke-linejoin: miter; stroke-miterlimit: 4; fill: rgb(255,255,255); fill-rule: nonzero; opacity: 1;" vector-effect="non-scaling-stroke"  transform=" translate(0, 0)" d="M -5.43847 118.79249 L -7.03364 -118.79248 L 2.7522900000000003 -118.79248 L 4.89296 -117.72214 L 7.0336300000000005 115.46016 L 4.89296 118.7925 z" stroke-linecap="round" />
</g>
<g transform="matrix(1 0 0 1 200.0016989915 363.3611698684)" id="3ZuCeexk2IBTgUNzU3pu5"  >
<path style="stroke: rgb(0,0,0); stroke-width: 1; stroke-dasharray: none; stroke-linecap: butt; stroke-dashoffset: 0; stroke-linejoin: miter; stroke-miterlimit: 4; fill: rgb(255,255,255); fill-rule: nonzero; opacity: 1;" vector-effect="non-scaling-stroke"  transform=" translate(0, 0)" d="M 0.99388 116.05341 L -0.99389 -116.05341" stroke-linecap="round" />
</g>
<g transform="matrix(1 0 0 1 425.4072263084 364.148530769)" id="2MhCxJ5Ygr9w2WYXLYny5"  >
<path style="stroke: rgb(0,0,0); stroke-width: 1; stroke-dasharray: none; stroke-linecap: butt; stroke-dashoffset: 0; stroke-linejoin: miter; stroke-miterlimit: 4; fill: rgb(255,255,255); fill-rule: nonzero; opacity: 1;" vector-effect="non-scaling-stroke"  transform=" translate(0, 0)" d="M 5.72507 118.33386 L 6.914 -118.33386 L -4.72175 -118.33386 L -5.94558 -115.72195 L -6.914 115.76604999999999 L -4.72176 118.33385999999999 z" stroke-linecap="round" />
</g>
<g transform="matrix(1 0 0 1 335.5991747523 419.7998484565)" id="epV8AtRnXUtOeq8kTtPiY"  >
<path style="stroke: rgb(0,0,0); stroke-width: 1; stroke-dasharray: none; stroke-linecap: butt; stroke-dashoffset: 0; stroke-linejoin: miter; stroke-miterlimit: 4; fill: rgb(255,255,255); fill-rule: nonzero; opacity: 1;" vector-effect="non-scaling-stroke"  transform=" translate(0, 0)" d="M -4.3981 -25.82011 C -8.69002 -25.82011 -12.16931 -22.34082 -12.16931 -18.0489 L -12.16931 25.8201 L 12.16931 25.8201 L 12.16931 -5.898520000000001 L 9.10053 -8.783070000000002 L 9.10053 -24.16317 L 9.10053 -24.16317 C 9.10053 -25.07827 8.35869 -25.82011 7.443589999999999 -25.82011 z" stroke-linecap="round" />
</g>
<g transform="matrix(1 0 0 1 349.0383281914 405.2495839063)" id="Hv5QxQK-435ZNtuNYb3qG"  >
<path style="stroke: rgb(0,0,0); stroke-width: 1; stroke-dasharray: none; stroke-linecap: butt; stroke-dashoffset: 0; stroke-linejoin: miter; stroke-miterlimit: 4; fill: rgb(255,255,255); fill-rule: nonzero; opacity: 1;" vector-effect="non-scaling-stroke"  transform=" translate(0, 0)" d="M -3.1746 -9.38073 C -3.1746 -9.89807 -2.75521 -10.31746 -2.23787 -10.31746 L 0.8551000000000002 -10.31746 L 0.8551000000000002 -10.31746 C 2.13613 -10.31746 3.1746000000000003 -9.27898 3.1746000000000003 -7.997960000000001 L 3.1746000000000003 7.633019999999998 L 3.1746000000000003 7.633019999999998 C 3.1746000000000003 8.545819999999999 2.6063800000000006 9.362149999999998 1.7503700000000002 9.679109999999998 L 0.026390000000000136 10.317459999999997 L 0.026390000000000136 8.151749999999996 L -3.17461 5.026459999999997 z" stroke-linecap="round" />
</g>
<g transform="matrix(1 0 0 1 333.803546036 402.9752010259)" id="OCqRUtDrgbtDy4BuzEFtQ"  >
<path style="stroke: rgb(0,0,0); stroke-width: 1; stroke-dasharray: none; stroke-linecap: butt; stroke-dashoffset: 0; stroke-linejoin: miter; stroke-miterlimit: 4; fill: rgb(255,255,255); fill-rule: nonzero; opacity: 1;" vector-effect="non-scaling-stroke"  transform=" translate(0, 0)" d="M -8.69242 0 L 8.69242 0" stroke-linecap="round" />
</g>
<g transform="matrix(1 0 0 1 335.5991747523 432.9529127644)" id="c9MyPgZaWEuBLskM_ym4o"  >
<path style="stroke: rgb(0,0,0); stroke-width: 1; stroke-dasharray: none; stroke-linecap: butt; stroke-dashoffset: 0; stroke-linejoin: miter; stroke-miterlimit: 4; fill: rgb(255,255,255); fill-rule: nonzero; opacity: 1;" vector-effect="non-scaling-stroke"  transform=" translate(-7.6894487629, -7.6894487629)" d="M 7.68945 0 C 11.93402 0 15.3789 3.44487 15.3789 7.68945 C 15.3789 11.93402 11.93403 15.3789 7.68945 15.3789 C 3.4448799999999995 15.3789 0 11.93403 0 7.68945 C 0 3.4448799999999995 3.44487 0 7.68945 0 z" stroke-linecap="round" />
</g>
<g transform="matrix(0.7321618596 0 0 0.7321618596 335.5991747523 411.2030596782)" id="b0oA7mn7UH0McQFsvzaM3"  >
<path style="stroke: rgb(0,0,0); stroke-width: 1; stroke-dasharray: none; stroke-linecap: butt; stroke-dashoffset: 0; stroke-linejoin: miter; stroke-miterlimit: 4; fill: rgb(255,255,255); fill-rule: nonzero; opacity: 1;" vector-effect="non-scaling-stroke"  transform=" translate(0, 0)" d="M 0 -7.68945 C 4.24457 -7.68945 7.68945 -4.24458 7.68945 0 C 7.68945 4.24457 4.24458 7.68945 0 7.68945 C -4.24457 7.68945 -7.68945 4.24458 -7.68945 0 C -7.68945 -4.24457 -4.24458 -7.68945 0 -7.68945 z" stroke-linecap="round" />
</g>
<g transform="matrix(1 0 0 1 349.105630431 400.411443341)" id="99WA1z5kh5cimR4fVeMz4"  >
<path style="stroke: rgb(0,0,0); stroke-width: 1; stroke-dasharray: none; stroke-linecap: butt; stroke-dashoffset: 0; stroke-linejoin: miter; stroke-miterlimit: 4; fill: rgb(255,255,255); fill-rule: nonzero; opacity: 1;" vector-effect="non-scaling-stroke"  transform=" translate(0, 0)" d="M -1.98618 0.69085 L 1.9861900000000001 -0.6908400000000001" stroke-linecap="round" />
</g>
<g transform="matrix(1 0 0 1 350.5347294312 412.101406883)" id="dPfLUNBYO6BnyjsgoTs2Z"  >
<path style="stroke: rgb(0,0,0); stroke-width: 1; stroke-dasharray: none; stroke-linecap: butt; stroke-dashoffset: 0; stroke-linejoin: miter; stroke-miterlimit: 4; fill: rgb(255,255,255); fill-rule: nonzero; opacity: 1;" vector-effect="non-scaling-stroke"  transform=" translate(0, 0)" d="M -0.6396 0.3337 L 0.6396 -0.33370999999999995" stroke-linecap="round" />
</g>
<g transform="matrix(1 0 0 1 335.4396841405 421.4222733159)" id="CK0H1lrq0ha6xjLepOYnp"  >
<path style="stroke: rgb(0,0,0); stroke-width: 1; stroke-dasharray: none; stroke-linecap: butt; stroke-dashoffset: 0; stroke-linejoin: miter; stroke-miterlimit: 4; fill: rgb(255,255,255); fill-rule: nonzero; opacity: 1;" vector-effect="non-scaling-stroke"  transform=" translate(0, 0)" d="M -8.51789 0 L 8.51789 0" stroke-linecap="round" />
</g>
<g transform="matrix(1 0 0 1.0013389982 422.0767035429 368.0437473476)" id="s3D26jMmPj-yq-MuXnA4X"  >
<path style="stroke: rgb(0,0,0); stroke-width: 1; stroke-dasharray: none; stroke-linecap: butt; stroke-dashoffset: 0; stroke-linejoin: miter; stroke-miterlimit: 4; fill: rgb(255,255,255); fill-rule: nonzero; opacity: 1;" vector-effect="non-scaling-stroke"  transform=" translate(0, 0)" d="M -0.54806 111.72124 L 0.54806 -111.72122999999999" stroke-linecap="round" />
</g>
<g transform="matrix(1 0 0 1 422.6247642511 245.3146707061)" id="uIBTggatCyRu84uJTGGFS"  >
<path style="stroke: rgb(0,0,0); stroke-width: 1; stroke-dasharray: none; stroke-linecap: butt; stroke-dashoffset: 0; stroke-linejoin: miter; stroke-miterlimit: 4; fill: rgb(255,255,255); fill-rule: nonzero; opacity: 1;" vector-effect="non-scaling-stroke"  transform=" translate(0, 0)" d="M 0 0" stroke-linecap="round" />
</g>
<g transform="matrix(1 0 0 1 311.2755487903 249.0123516739)" id="8T_1-4bCFbf_1zXlBsogp"  >
<path style="stroke: rgb(0,0,0); stroke-width: 1; stroke-dasharray: none; stroke-linecap: butt; stroke-dashoffset: 0; stroke-linejoin: miter; stroke-miterlimit: 4; fill: rgb(255,255,255); fill-rule: nonzero; opacity: 1;" vector-effect="non-scaling-stroke"  transform=" translate(0, 0)" d="M 111.84922 -3.19768 L 111.84922 3.59037 L 110.27543 4.63969 L -108.9101 4.317629999999999 L -111.84922 3.590369999999999 L -111.84922 -4.639690000000001 z" stroke-linecap="round" />
</g>
<g transform="matrix(1 0 0 1 311.262112809 252.0772545179)" id="qnghfXjMx-lk-pfBBVOnH"  >
<path style="stroke: rgb(0,0,0); stroke-width: 1; stroke-dasharray: none; stroke-linecap: butt; stroke-dashoffset: 0; stroke-linejoin: miter; stroke-miterlimit: 4; fill: rgb(255,255,255); fill-rule: nonzero; opacity: 1;" vector-effect="non-scaling-stroke"  transform=" translate(0, 0)" d="M 109.76653 0 L -109.76653 0" stroke-linecap="round" />
</g>
<g transform="matrix(1 0 0 1 311.8047471821 267.9817494763)" id="5gLCfP0ESRtRU7cBbg7V4"  >
<path style="stroke: rgb(0,0,0); stroke-width: 1; stroke-dasharray: none; stroke-linecap: butt; stroke-dashoffset: 0; stroke-linejoin: miter; stroke-miterlimit: 4; fill: rgb(255,255,255); fill-rule: nonzero; opacity: 1;" vector-effect="non-scaling-stroke"  transform=" translate(0, 0)" d="M -79.89002 -3.72734 L 80.39001 -3.72734 L 80.39001 3.7273500000000004 L -80.39002 3.7273500000000004 z" stroke-linecap="round" />
</g>
<g transform="matrix(1 0 0 1 231.5397306675 362.8613159702)" id="eS6OXKecoH3WHNWyf9EHS"  >
<path style="stroke: rgb(0,0,0); stroke-width: 1; stroke-dasharray: none; stroke-linecap: butt; stroke-dashoffset: 0; stroke-linejoin: miter; stroke-miterlimit: 4; fill: rgb(255,255,255); fill-opacity: 0; fill-rule: nonzero; opacity: 1;" vector-effect="non-scaling-stroke"  transform=" translate(0, 0)" d="M -0.625 -89.40792 L 0.625 89.40791" stroke-linecap="round" />
</g>
<g transform="matrix(1 0 0 1 392.6947636968 363.9340798712)" id="AYNH-auQ1Ozk2Hb7TsXjk"  >
<path style="stroke: rgb(0,0,0); stroke-width: 1; stroke-dasharray: none; stroke-linecap: butt; stroke-dashoffset: 0; stroke-linejoin: miter; stroke-miterlimit: 4; fill: rgb(255,255,255); fill-opacity: 0; fill-rule: nonzero; opacity: 1;" vector-effect="non-scaling-stroke"  transform=" translate(0, 0)" d="M 0 -88.38132 L 0 88.38132" stroke-linecap="round" />
</g>
<g transform="matrix(1 0 0 1 217.260115412 263.0166738027)" id="7617Q4ubiwbsvIOcnqY47"  >
<path style="stroke: rgb(0,0,0); stroke-width: 1; stroke-dasharray: none; stroke-linecap: butt; stroke-dashoffset: 0; stroke-linejoin: miter; stroke-miterlimit: 4; fill: rgb(255,255,255); fill-opacity: 0; fill-rule: nonzero; opacity: 1;" vector-effect="non-scaling-stroke"  transform=" translate(0, 0)" d="M -10.9332 -6.34376 L 10.93319 6.34376" stroke-linecap="round" />
</g>
<g transform="matrix(1 0 0 1 406.3045877273 262.874829831)" id="TU3BVS82O3-qaAcS4q-2O"  >
<path style="stroke: rgb(0,0,0); stroke-width: 1; stroke-dasharray: none; stroke-linecap: butt; stroke-dashoffset: 0; stroke-linejoin: miter; stroke-miterlimit: 4; fill: rgb(255,255,255); fill-opacity: 0; fill-rule: nonzero; opacity: 1;" vector-effect="non-scaling-stroke"  transform=" translate(0, 0)" d="M 11.68864 -6.70191 L -11.68864 6.701919999999999" stroke-linecap="round" />
</g>
<g transform="matrix(1 0 0 1 311.5275276824 328.6170737698)" id="7xnec6ofETDRhsDnG-fev"  >
<path style="stroke: rgb(0,0,0); stroke-width: 1; stroke-dasharray: none; stroke-linecap: butt; stroke-dashoffset: 0; stroke-linejoin: miter; stroke-miterlimit: 4; fill: rgb(255,255,255); fill-opacity: 0; fill-rule: nonzero; opacity: 1;" vector-effect="non-scaling-stroke"  transform=" translate(0, 0)" d="M 24.07165 64.86267 C 24.07165 64.86267 31.929280000000002 35.460879999999996 -9.279509999999998 10.735599999999991 C -50.488299999999995 -13.989670000000007 4.099820000000001 -64.86267000000001 4.099820000000001 -64.86267000000001" stroke-linecap="round" />
</g>
</svg>