<?xml version="1.0" encoding="UTF-8" standalone="no" ?>
<!DOCTYPE svg PUBLIC "-//W3C//DTD SVG 1.1//EN" "http://www.w3.org/Graphics/SVG/1.1/DTD/svg11.dtd">
<svg xmlns="http://www.w3.org/2000/svg" xmlns:xlink="http://www.w3.org/1999/xlink" version="1.1" width="640" height="640" viewBox="0 0 640 640" xml:space="preserve">
<desc>Created with Fabric.js 5.3.0</desc>
<defs>
</defs>
<g transform="matrix(1 0 0 1 327.4629047269 314.4518668874)" id="Mv32RLnf7CKGX6zoSQD_H"  >
<path style="stroke: rgb(0,0,0); stroke-width: 1; stroke-dasharray: none; stroke-linecap: butt; stroke-dashoffset: 0; stroke-linejoin: miter; stroke-miterlimit: 4; fill: rgb(255,255,255); fill-rule: nonzero; opacity: 1;" vector-effect="non-scaling-stroke"  transform=" translate(0, 0)" d="M 65.44696 -240.20606 L -21.68351 -161.17326000000003 L -70.28978000000001 240.20604999999995 L -69.07933000000001 235.64623999999995 L -65.52670000000002 235.96887999999996 L -11.423990000000018 -133.36255000000006 L 70.28976999999998 -234.53214000000006 z" stroke-linecap="round" />
</g>
<g transform="matrix(1 0 0 1 299.1057912985 327.3081453423)" id="-LD5Mxgdy1JzXlZPctsqa"  >
<path style="stroke: rgb(0,0,0); stroke-width: 1; stroke-dasharray: none; stroke-linecap: butt; stroke-dashoffset: 0; stroke-linejoin: miter; stroke-miterlimit: 4; fill: rgb(255,255,255); fill-rule: nonzero; opacity: 1;" vector-effect="non-scaling-stroke"  transform=" translate(0, 0)" d="M -12.74272 -276.75794 L -12.74272 -263.16571 L -1.5776699999999995 -137.92298999999997 L -18.32524 272.38901000000004 L -15.41262 276.75794 L -8.6165 275.24011 L 18.325249999999997 -140.10980999999998 L -8.616500000000002 -269.49758999999995 z" stroke-linecap="round" />
</g>
<g transform="matrix(1 0 0 1 293.2805485801 331.7442373397)" id="MonguzPH9Nzipt3kW-NUW"  >
<path style="stroke: rgb(0,0,0); stroke-width: 1; stroke-dasharray: none; stroke-linecap: butt; stroke-dashoffset: 0; stroke-linejoin: miter; stroke-miterlimit: 4; fill: rgb(255,255,255); fill-opacity: 0; fill-rule: nonzero; opacity: 1;" vector-effect="non-scaling-stroke"  transform=" translate(0, 0)" d="M -4.73301 -268.35116 L 9.101939999999999 -179.93802 L -9.101940000000003 268.35117" stroke-linecap="round" />
</g>
<g transform="matrix(1 0 0 1 316.0389183907 328.8953949917)" id="in487QvpUJPht2MmcdE4B"  >
<path style="stroke: rgb(0,0,0); stroke-width: 1; stroke-dasharray: none; stroke-linecap: butt; stroke-dashoffset: 0; stroke-linejoin: miter; stroke-miterlimit: 4; fill: rgb(255,255,255); fill-rule: nonzero; opacity: 1;" vector-effect="non-scaling-stroke"  transform=" translate(0, 0)" d="M -97.98563 -243.18355 L -98.76323000000001 -238.82896 L -22.09138 -160.44637999999998 L 92.24784 243.18354000000005 L 98.76323 241.21064000000004 L -9.336660000000009 -196.90252999999998 z" stroke-linecap="round" />
</g>
<g transform="matrix(0.845912449 0 0 0.845912449 300.0564524103 150.4288173658)" id="sEBmDuE56JvorIKmjACbc"  >
<path style="stroke: rgb(0,0,0); stroke-width: 1; stroke-dasharray: none; stroke-linecap: butt; stroke-dashoffset: 0; stroke-linejoin: miter; stroke-miterlimit: 4; fill: rgb(255,255,255); fill-opacity: 0; fill-rule: nonzero; opacity: 1;" vector-effect="non-scaling-stroke"  transform=" translate(0, 0)" d="M -6.17433 18.64407 L 6.17434 -18.64407" stroke-linecap="round" />
</g>
<g transform="matrix(1 0 0 1 393.4098639915 73.745810684)" id="1Sv9ORDJMHNL7_Ak1zG6G"  >
<path style="stroke: rgb(0,0,0); stroke-width: 1; stroke-dasharray: none; stroke-linecap: butt; stroke-dashoffset: 0; stroke-linejoin: miter; stroke-miterlimit: 4; fill: rgb(255,255,255); fill-opacity: 0; fill-rule: nonzero; opacity: 1;" vector-effect="non-scaling-stroke"  transform=" translate(0, 0)" d="M 0 0" stroke-linecap="round" />
</g>
<g transform="matrix(1 0 0 1 349.8509404311 127.4686515536)" id="w3btFJ9Lcl1r2sET0kfsB"  >
<path style="stroke: rgb(0,0,0); stroke-width: 1; stroke-dasharray: none; stroke-linecap: butt; stroke-dashoffset: 0; stroke-linejoin: miter; stroke-miterlimit: 4; fill: rgb(255,255,255); fill-opacity: 0; fill-rule: nonzero; opacity: 1;" vector-effect="non-scaling-stroke"  transform=" translate(0, 0)" d="M 43.05892 -51.36396 L 44.05892 -47.36744 L -44.058930000000004 51.36395 L -39.052020000000006 22.960160000000002" stroke-linecap="round" />
</g>
<g transform="matrix(1.2688613025 0 0 1.2688613025 359.5329218257 408.2535031811)" id="-tfBOK1X8IAurEOXuXWMC"  >
<path style="stroke: rgb(0,0,0); stroke-width: 1; stroke-dasharray: none; stroke-linecap: butt; stroke-dashoffset: 0; stroke-linejoin: miter; stroke-miterlimit: 4; fill: rgb(255,255,255); fill-opacity: 0; fill-rule: nonzero; opacity: 1;" vector-effect="non-scaling-stroke"  transform=" translate(0, 0)" d="M -37.00661 -124.51755 L 37.00661 124.51756" stroke-linecap="round" />
</g>
</svg>